<?xml version="1.0"?>
<svg xmlns="http://www.w3.org/2000/svg" viewBox="0 0 64 64" width="512px" height="512px"><g><g id="outline"><circle cx="15.5" cy="11" r="1" data-original="#000000" class="active-path" data-old_color="#000000" fill="#91D7CB"/><circle cx="11.5" cy="11" r="1" data-original="#000000" class="active-path" data-old_color="#000000" fill="#91D7CB"/><circle cx="7.5" cy="11" r="1" data-original="#000000" class="active-path" data-old_color="#000000" fill="#91D7CB"/><path d="M50.5,20V14a1,1,0,0,0-1-1H7.5a1,1,0,0,0-1,1v6a1,1,0,0,0,1,1h42A1,1,0,0,0,50.5,20Zm-2-1H8.5V15h40Z" data-original="#000000" class="active-path" data-old_color="#000000" fill="#91D7CB"/><path d="M13.5,23h-6a1,1,0,0,0,0,2h6a1,1,0,0,0,0-2Z" data-original="#000000" class="active-path" data-old_color="#000000" fill="#91D7CB"/><path d="M13.5,27h-6a1,1,0,0,0,0,2h6a1,1,0,0,0,0-2Z" data-original="#000000" class="active-path" data-old_color="#000000" fill="#91D7CB"/><path d="M13.5,31h-6a1,1,0,0,0,0,2h6a1,1,0,0,0,0-2Z" data-original="#000000" class="active-path" data-old_color="#000000" fill="#91D7CB"/><path d="M13.5,35h-6a1,1,0,0,0,0,2h6a1,1,0,0,0,0-2Z" data-original="#000000" class="active-path" data-old_color="#000000" fill="#91D7CB"/><path d="M61,43.22l-2.46-1.56c0-.41.06-.79.06-1.16s0-.75-.06-1.16L61,37.78a1,1,0,0,0,.42-1.15l-.8-2.46a1,1,0,0,0-1-.69l-2.9.19a13.79,13.79,0,0,0-1.37-1.87l1.07-2.71a1,1,0,0,0-.34-1.18l-1.6-1.16V10a3,3,0,0,0-3-3H5.5a3,3,0,0,0-3,3V42a3,3,0,0,0,3,3h6.2l-.07.12a1,1,0,0,0,.26,1.29l1,.78a6.66,6.66,0,0,0,0,2.3l-1,.78a1,1,0,0,0-.26,1.29l1.28,2.22a1,1,0,0,0,1.25.42l1.19-.49a7,7,0,0,0,2,1.14l.16,1.28a1,1,0,0,0,1,.87h2.55a1,1,0,0,0,1-.87l.17-1.28a7.29,7.29,0,0,0,2-1.14l1.18.49a1,1,0,0,0,1.25-.42l1.28-2.22a1,1,0,0,0-.26-1.29l-1-.78a6.66,6.66,0,0,0,0-2.3l1-.78a1,1,0,0,0,.26-1.29L27.84,45h1.63l.6,1.83a1,1,0,0,0,1,.69l2.9-.19a13.79,13.79,0,0,0,1.37,1.87l-1.08,2.71a1,1,0,0,0,.35,1.18l2.09,1.52a1,1,0,0,0,1.22,0l2.25-1.87a12.3,12.3,0,0,0,2.2.72l.72,2.83a1,1,0,0,0,1,.75h2.58a1,1,0,0,0,1-.75l.72-2.83a12.3,12.3,0,0,0,2.2-.72l2.25,1.87a1,1,0,0,0,1.22,0l2.09-1.52a1,1,0,0,0,.34-1.18L55.37,49.2a13.79,13.79,0,0,0,1.37-1.87l2.9.19a1,1,0,0,0,1-.69l.8-2.46A1,1,0,0,0,61,43.22ZM25.34,52l-1-.39a1,1,0,0,0-1.09.21A5.06,5.06,0,0,1,21,53.13a1,1,0,0,0-.74.83l-.13,1h-.8l-.13-1a1,1,0,0,0-.74-.83,5,5,0,0,1-2.24-1.3,1,1,0,0,0-1.1-.21l-1,.39-.39-.68.82-.64a1,1,0,0,0,.36-1A4.78,4.78,0,0,1,15,47a1,1,0,0,0-.36-1l-.82-.64.39-.68,1,.39a1,1,0,0,0,1.1-.21,5,5,0,0,1,2.24-1.3,1,1,0,0,0,.74-.83l.13-1h.8l.13,1a1,1,0,0,0,.74.83,5.06,5.06,0,0,1,2.25,1.3,1,1,0,0,0,1.09.21l1-.39.4.68-.83.64a1,1,0,0,0-.36,1,4.78,4.78,0,0,1,0,2.6,1,1,0,0,0,.36,1l.83.64ZM30,43H26.69l-.06-.1a1,1,0,0,0-1.25-.42L24.2,43a7.29,7.29,0,0,0-2-1.14L22,40.55a1,1,0,0,0-1-.87H19.5V23a1,1,0,0,0-2,0V40.58l-.16,1.25a6.78,6.78,0,0,0-2,1.14l-1.19-.49a1,1,0,0,0-1.25.42l-.05.1H5.5a1,1,0,0,1-1-1V10a1,1,0,0,1,1-1h46a1,1,0,0,1,1,1V26.67l-2,1.63a12.3,12.3,0,0,0-2.2-.72l-.72-2.83a1,1,0,0,0-1-.75H44.07a1,1,0,0,0-1,.75l-.72,2.83a12.3,12.3,0,0,0-2.2.72l-2.25-1.87a1,1,0,0,0-1.22,0l-2.09,1.52-.09.09h-9a1,1,0,0,0,0,2h9.14l.71,1.8c-.11.12-.2.25-.31.38A1,1,0,0,0,34.5,32h-9a1,1,0,0,0,0,2h4.66a.7.7,0,0,0-.09.17L29.47,36h-4a1,1,0,0,0,0,2h4a1.1,1.1,0,0,0,.4-.08l2.25,1.42c0,.41-.06.79-.06,1.16s0,.75.06,1.16Zm29,2.47-2.75-.18a1,1,0,0,0-.94.53,11.38,11.38,0,0,1-1.82,2.48,1,1,0,0,0-.2,1.06l1,2.57-.83.6-2.13-1.76a1,1,0,0,0-1.08-.14,10.56,10.56,0,0,1-2.91.95,1,1,0,0,0-.8.74L45.87,55h-1l-.69-2.68a1,1,0,0,0-.79-.74,10.45,10.45,0,0,1-2.91-.95,1,1,0,0,0-1.08.14l-2.13,1.76-.83-.6,1-2.57a1,1,0,0,0-.2-1.06,11.38,11.38,0,0,1-1.82-2.48,1,1,0,0,0-.94-.53l-2.75.18-.32-1L33.75,43a1,1,0,0,0,.46-1,9.81,9.81,0,0,1,0-3.06,1,1,0,0,0-.46-1l-2.34-1.48.32-1,2.75.18a1,1,0,0,0,.94-.53,11.38,11.38,0,0,1,1.82-2.48,1,1,0,0,0,.2-1.06l-1-2.57.83-.6,2.13,1.76a1,1,0,0,0,1.08.14,10.45,10.45,0,0,1,2.91-.95,1,1,0,0,0,.79-.74L44.85,26h1l.68,2.68a1,1,0,0,0,.8.74,10.56,10.56,0,0,1,2.91.95,1,1,0,0,0,1.08-.14l2.13-1.76.83.6-1,2.57a1,1,0,0,0,.2,1.06,11.38,11.38,0,0,1,1.82,2.48,1,1,0,0,0,.94.53L59,35.53l.32,1L57,38a1,1,0,0,0-.46,1,9.81,9.81,0,0,1,0,3.06A1,1,0,0,0,57,43l2.34,1.48Z" data-original="#000000" class="active-path" data-old_color="#000000" fill="#91D7CB"/><path d="M45.36,31a9.5,9.5,0,1,0,9.5,9.5A9.51,9.51,0,0,0,45.36,31Zm0,17a7.5,7.5,0,1,1,7.5-7.5A7.5,7.5,0,0,1,45.36,48Z" data-original="#000000" class="active-path" data-old_color="#000000" fill="#91D7CB"/><path d="M19.77,45a3.34,3.34,0,1,0,3.34,3.34A3.35,3.35,0,0,0,19.77,45Zm0,4.68a1.34,1.34,0,1,1,1.34-1.34A1.34,1.34,0,0,1,19.77,49.68Z" data-original="#000000" class="active-path" data-old_color="#000000" fill="#91D7CB"/><path d="M35.5,24h-10a1,1,0,0,0,0,2h10a1,1,0,0,0,0-2Z" data-original="#000000" class="active-path" data-old_color="#000000" fill="#91D7CB"/></g><script xmlns="" class="active-path" style=""/></g> </svg>
