<svg xmlns="http://www.w3.org/2000/svg" viewBox="0 0 500 500"><g id="freepik--Shadows--inject-68"><ellipse id="freepik--Shadow--inject-68" cx="428.67" cy="395.53" rx="45.83" ry="26.46" style="fill:#e0e0e0"></ellipse><path id="freepik--shadow--inject-68" d="M206.09,468.44,64.28,386.51c-5.53-3.19-5.53-8.42,0-11.61L285.35,247.28a9.21,9.21,0,0,1,8.28,0l150.68,87a.72.72,0,0,1,0,1.37L214.37,468.44A9.15,9.15,0,0,1,206.09,468.44Z" style="fill:#e0e0e0"></path></g><g id="freepik--Plant--inject-68"><g id="freepik--Plants--inject-68"><path d="M83.64,348.31s.59-17.14-4.3-31.75-14-25.25-24.12-28.67-20.87,4-11.46,13.3S71.14,322.12,74,348.82Z" style="fill:#90D7CB"></path><path d="M83.64,348.31s.59-17.14-4.3-31.75-14-25.25-24.12-28.67-20.87,4-11.46,13.3S71.14,322.12,74,348.82Z" style="opacity:0.15"></path><path d="M80,342.87h.11a.57.57,0,0,0,.49-.64c-4.14-29.61-22.07-46.05-31-50.61a.57.57,0,0,0-.77.24.58.58,0,0,0,.25.77c8.73,4.47,26.3,20.61,30.37,49.76A.57.57,0,0,0,80,342.87Z" style="fill:#fff"></path><path d="M32.12,329c.33,2.1,2.11,3.64,3.82,4.93s3.54,2.67,4.09,4.73c.87,3.27-2.14,5.73-2.9,8.76-.55,2.24-.43,5.21,2.33,6.71s6.8.44,10.44,1.14c2.47.48,4.28,2.88,4.86,5.31s.28,5.62,2,7.85c3.17,4.26,9.78,6.33,14.54,4.47l16-9.3c4.29-6.41-.74-16.56-8.29-19.81-1.61-.7-3.41-1-4.72-2.21-1.59-1.41-2.07-3.66-2.27-5.77s-.21-4.31-1.16-6.2c-1.33-2.63-4.28-4.12-7.2-4.48-3.43-.42-6.75,1.12-10,.11s-6.35-2.76-9.72-3.43-6.94-.18-9.53,2.09A5.92,5.92,0,0,0,32.12,329Z" style="fill:#90D7CB"></path><path d="M67.19,342a.4.4,0,0,0-.16-.18c-9.81-11.33-23.85-15.78-28.5-16.34a.5.5,0,0,0-.54.42.48.48,0,0,0,.42.53c4.41.54,17.45,4.64,27,15a26.43,26.43,0,0,0-20.78,3.9.48.48,0,0,0-.08.68.49.49,0,0,0,.41.17.44.44,0,0,0,.26-.1,25.52,25.52,0,0,1,21.29-3.42,40.08,40.08,0,0,1,9.59,23.87.48.48,0,0,0,.48.44h0a.47.47,0,0,0,.45-.51A41,41,0,0,0,67.19,342Z" style="fill:#fff"></path></g></g><g id="freepik--Gears--inject-68"><g id="freepik--gears--inject-68"><path d="M310.92,131.25c-.49.46-1,.9-1.5,1.31-6.2,4.88-12.15,3.55-13.27-3s3-15.76,9.21-20.64a13.43,13.43,0,0,1,5.56-2.78V96.56c-.22.08-.44.15-.66.24a1.3,1.3,0,0,1-1.8-.82l-1.29-4.29a1,1,0,0,0-1.62-.51l-5.73,4.5a3.22,3.22,0,0,0-1.09,2.43l.35,5.45a4.3,4.3,0,0,1-.9,2.64c-.93,1.12-1.82,2.3-2.65,3.52a3,3,0,0,1-2.34,1.18l-3.68-.18A2.35,2.35,0,0,0,287.4,112l-3.46,7.76a1.48,1.48,0,0,0,.77,2l3,1.27a1.82,1.82,0,0,1,1,2,32.52,32.52,0,0,0-.63,3.7,4.62,4.62,0,0,1-1.25,2.51l-5.07,4.67a3.08,3.08,0,0,0-.85,2.5l1,5.53a.91.91,0,0,0,1.51.66l5.07-3.34a1.48,1.48,0,0,1,2,.46,9,9,0,0,0,1,1.21,2.52,2.52,0,0,1,.59,2.42l-2.58,7a1.28,1.28,0,0,0,.94,1.74l3.82.85a2.06,2.06,0,0,0,2.17-1l3.59-6.85a3.83,3.83,0,0,1,2.17-1.63,18.07,18.07,0,0,0,2.36-.78,1.29,1.29,0,0,1,1.8.83l1.3,4.29a1,1,0,0,0,1.61.51l1.69-1.33Z" style="opacity:0.25"></path><path d="M369.23,49.35h0a.72.72,0,0,0-.78.06l-1.61,1.06-.35,1a1.83,1.83,0,0,0,.44,1.79,9.37,9.37,0,0,1,.73.89,1.08,1.08,0,0,0,1.5.34L372.91,52a.72.72,0,0,1,.76-.08ZM363.46,63.1c-.52-3-2.46-4.55-5-4.34a7.26,7.26,0,0,1,.52,1.77c.83,4.81-2.22,11.64-6.8,15.24a9.26,9.26,0,0,1-4.8,2.15c1.5,3.23,5.3,3.53,9.26.42C361.25,74.74,364.29,67.91,363.46,63.1Zm.08-20.56h0a.74.74,0,0,0-.29-.12l-2.82-.64a1.53,1.53,0,0,0-1.6.74l-2.66,5.06a2.33,2.33,0,0,1-.59.68h0a2.21,2.21,0,0,1-.45.3l.83,2.76a1,1,0,0,0,1.33.61,13,13,0,0,1,1.74-.57,2.9,2.9,0,0,0,1-.53,2.25,2.25,0,0,0,.6-.68l2.65-5.06a1.54,1.54,0,0,1,1.6-.74l2.82.64a.77.77,0,0,1,.28.1Zm-8,49a.81.81,0,0,1-.26-.43l-1-3.17a1,1,0,0,0-1.33-.61,12.6,12.6,0,0,1-1.74.57,2.81,2.81,0,0,0-.55.23l.13.41a.79.79,0,0,0,.36.49h0ZM350.18,45.1a.65.65,0,0,0-.31-.08.81.81,0,0,0-.52.2l-4.23,3.32-.16.16a.68.68,0,0,0-.12.12,3.31,3.31,0,0,0-.37.67,1,1,0,0,1-.05.16h0a1.93,1.93,0,0,0-.11.68l.25,4a3.21,3.21,0,0,1-.66,2c-.69.83-1.35,1.7-2,2.59a2,2,0,0,1-.93.72,1.92,1.92,0,0,1-.37.11l-.18,0a.65.65,0,0,1-.24,0l-2.72-.14h-.07a.83.83,0,0,0-.22,0,.71.71,0,0,0-.2,0h0a.85.85,0,0,0-.22.09,2,2,0,0,0-.4.24,1.65,1.65,0,0,0-.43.56l-2.56,5.73a1.08,1.08,0,0,0,.43,1.37l3,1.74a1.34,1.34,0,0,1,.07.79,24.38,24.38,0,0,0-.47,2.73,3.44,3.44,0,0,1-.91,1.86l0,0-3.71,3.41a1.8,1.8,0,0,0-.18.2s0,0,0,0a1,1,0,0,0-.15.24,2.26,2.26,0,0,0-.28,1.37l.71,4.09a.85.85,0,0,0,.33.55l4.43,2.55a.8.8,0,0,1-.31-.54l-.7-4.08a1.94,1.94,0,0,1,0-.79,2.21,2.21,0,0,1,.59-1.06l3.7-3.41,0,0a3.42,3.42,0,0,0,.92-1.86,24,24,0,0,1,.48-2.73,1.38,1.38,0,0,0-.76-1.52l-2.2-.93a1.11,1.11,0,0,1-.57-1.46l2.56-5.72a1.53,1.53,0,0,1,.43-.56,1.73,1.73,0,0,1,1.13-.41l2.72.14a1.89,1.89,0,0,0,.79-.16,2.1,2.1,0,0,0,.93-.72c.61-.89,1.27-1.77,2-2.6a3.1,3.1,0,0,0,.66-1.94l-.25-4a1.75,1.75,0,0,1,.1-.7,2.28,2.28,0,0,1,.7-1.1l4.23-3.32a.73.73,0,0,1,.84-.12Zm-6.34,42.71a1.84,1.84,0,0,0-.45-1.78,7.1,7.1,0,0,1-.72-.9,1.09,1.09,0,0,0-1.5-.34L339,86.2l-1.56,4.2a.93.93,0,0,0,.38,1.15h0l4.47,2.57a.93.93,0,0,1-.38-1.15Z" style="fill:#90D7CB"></path><path d="M369.23,49.35h0a.72.72,0,0,0-.78.06l-1.61,1.06-.35,1a1.83,1.83,0,0,0,.44,1.79,9.37,9.37,0,0,1,.73.89,1.08,1.08,0,0,0,1.5.34L372.91,52a.72.72,0,0,1,.76-.08ZM363.46,63.1c-.52-3-2.46-4.55-5-4.34a7.26,7.26,0,0,1,.52,1.77c.83,4.81-2.22,11.64-6.8,15.24a9.26,9.26,0,0,1-4.8,2.15c1.5,3.23,5.3,3.53,9.26.42C361.25,74.74,364.29,67.91,363.46,63.1Zm.08-20.56h0a.74.74,0,0,0-.29-.12l-2.82-.64a1.53,1.53,0,0,0-1.6.74l-2.66,5.06a2.33,2.33,0,0,1-.59.68h0a2.21,2.21,0,0,1-.45.3l.83,2.76a1,1,0,0,0,1.33.61,13,13,0,0,1,1.74-.57,2.9,2.9,0,0,0,1-.53,2.25,2.25,0,0,0,.6-.68l2.65-5.06a1.54,1.54,0,0,1,1.6-.74l2.82.64a.77.77,0,0,1,.28.1Zm-8,49a.81.81,0,0,1-.26-.43l-1-3.17a1,1,0,0,0-1.33-.61,12.6,12.6,0,0,1-1.74.57,2.81,2.81,0,0,0-.55.23l.13.41a.79.79,0,0,0,.36.49h0ZM350.18,45.1a.65.65,0,0,0-.31-.08.81.81,0,0,0-.52.2l-4.23,3.32-.16.16a.68.68,0,0,0-.12.12,3.31,3.31,0,0,0-.37.67,1,1,0,0,1-.05.16h0a1.93,1.93,0,0,0-.11.68l.25,4a3.21,3.21,0,0,1-.66,2c-.69.83-1.35,1.7-2,2.59a2,2,0,0,1-.93.72,1.92,1.92,0,0,1-.37.11l-.18,0a.65.65,0,0,1-.24,0l-2.72-.14h-.07a.83.83,0,0,0-.22,0,.71.71,0,0,0-.2,0h0a.85.85,0,0,0-.22.09,2,2,0,0,0-.4.24,1.65,1.65,0,0,0-.43.56l-2.56,5.73a1.08,1.08,0,0,0,.43,1.37l3,1.74a1.34,1.34,0,0,1,.07.79,24.38,24.38,0,0,0-.47,2.73,3.44,3.44,0,0,1-.91,1.86l0,0-3.71,3.41a1.8,1.8,0,0,0-.18.2s0,0,0,0a1,1,0,0,0-.15.24,2.26,2.26,0,0,0-.28,1.37l.71,4.09a.85.85,0,0,0,.33.55l4.43,2.55a.8.8,0,0,1-.31-.54l-.7-4.08a1.94,1.94,0,0,1,0-.79,2.21,2.21,0,0,1,.59-1.06l3.7-3.41,0,0a3.42,3.42,0,0,0,.92-1.86,24,24,0,0,1,.48-2.73,1.38,1.38,0,0,0-.76-1.52l-2.2-.93a1.11,1.11,0,0,1-.57-1.46l2.56-5.72a1.53,1.53,0,0,1,.43-.56,1.73,1.73,0,0,1,1.13-.41l2.72.14a1.89,1.89,0,0,0,.79-.16,2.1,2.1,0,0,0,.93-.72c.61-.89,1.27-1.77,2-2.6a3.1,3.1,0,0,0,.66-1.94l-.25-4a1.75,1.75,0,0,1,.1-.7,2.28,2.28,0,0,1,.7-1.1l4.23-3.32a.73.73,0,0,1,.84-.12Zm-6.34,42.71a1.84,1.84,0,0,0-.45-1.78,7.1,7.1,0,0,1-.72-.9,1.09,1.09,0,0,0-1.5-.34L339,86.2l-1.56,4.2a.93.93,0,0,0,.38,1.15h0l4.47,2.57a.93.93,0,0,1-.38-1.15Z" style="opacity:0.30000000000000004"></path><path d="M339.93,77.43l-3.7,3.41a2.21,2.21,0,0,0-.59,1.06l-4.44-2.56a3,3,0,0,1,.22-.59,1,1,0,0,1,.15-.24s0,0,0,0a1.8,1.8,0,0,1,.18-.2l3.71-3.41Z" style="fill:#90D7CB"></path><path d="M345.47,62.19a1.89,1.89,0,0,1-.79.16L342,62.21a1.73,1.73,0,0,0-1.13.41l-4.45-2.57a2,2,0,0,1,.4-.24.85.85,0,0,1,.22-.09h0a.71.71,0,0,1,.2,0,.83.83,0,0,1,.22,0h.07l2.72.14a.65.65,0,0,0,.24,0l.18,0a2.42,2.42,0,0,0,.35-.12h0Z" style="fill:#90D7CB"></path><path d="M373.67,51.91a.72.72,0,0,0-.76.08l-3.75,2.47a1.09,1.09,0,0,1-1.5-.34,8.18,8.18,0,0,0-.73-.9,1.81,1.81,0,0,1-.44-1.78l.35-1,1.61-1a.73.73,0,0,1,.78-.08h0Z" style="fill:#90D7CB"></path><path d="M368,45.1a.77.77,0,0,0-.28-.1l-2.82-.64a1.54,1.54,0,0,0-1.6.74l-2.65,5.06a2.25,2.25,0,0,1-.6.68l-4.45-2.57a2.33,2.33,0,0,0,.59-.68l2.66-5.06a1.53,1.53,0,0,1,1.6-.74l2.82.64a.74.74,0,0,1,.29.12h0Z" style="fill:#90D7CB"></path><path d="M354.64,47.67a.73.73,0,0,0-.84.12l-4.23,3.32a2.28,2.28,0,0,0-.7,1.1l-4.45-2.56a1,1,0,0,0,.05-.16,3.31,3.31,0,0,1,.37-.67.68.68,0,0,1,.12-.12l.16-.16,4.23-3.32a.81.81,0,0,1,.52-.2.65.65,0,0,1,.31.08Z" style="fill:#90D7CB"></path><path d="M374.73,56.56,374,52.48a.67.67,0,0,0-1.11-.49l-3.75,2.47a1.08,1.08,0,0,1-1.5-.34,8.05,8.05,0,0,0-.73-.89,1.88,1.88,0,0,1-.44-1.79l1.91-5.16a1,1,0,0,0-.7-1.29l-2.82-.63a1.53,1.53,0,0,0-1.6.74l-2.65,5.06A2.85,2.85,0,0,1,359,51.37a12.6,12.6,0,0,0-1.74.57,1,1,0,0,1-1.33-.61L355,48.16a.71.71,0,0,0-1.2-.37l-4.23,3.32a2.36,2.36,0,0,0-.8,1.79l.25,4a3.15,3.15,0,0,1-.66,2,30,30,0,0,0-2,2.6,2.21,2.21,0,0,1-1.72.87L342,62.21a1.75,1.75,0,0,0-1.56,1l-2.56,5.73a1.09,1.09,0,0,0,.57,1.45l2.2.94a1.36,1.36,0,0,1,.75,1.51,24.94,24.94,0,0,0-.47,2.74,3.33,3.33,0,0,1-.92,1.85l-3.74,3.45a2.25,2.25,0,0,0-.63,1.85l.7,4.08a.68.68,0,0,0,1.12.49l3.74-2.47a1.1,1.1,0,0,1,1.51.34,8,8,0,0,0,.73.9,1.83,1.83,0,0,1,.43,1.78L341.93,93a1,1,0,0,0,.69,1.29l2.83.63a1.55,1.55,0,0,0,1.6-.74l2.65-5.06a2.77,2.77,0,0,1,1.6-1.2,14.19,14.19,0,0,0,1.74-.58,1,1,0,0,1,1.33.61l1,3.17a.7.7,0,0,0,1.19.37l4.23-3.32a2.36,2.36,0,0,0,.8-1.79l-.25-4a3.21,3.21,0,0,1,.66-1.95,30,30,0,0,0,2-2.6,2.21,2.21,0,0,1,1.73-.87l2.71.14a1.75,1.75,0,0,0,1.57-1l2.55-5.73a1.08,1.08,0,0,0-.57-1.45L369.72,68a1.36,1.36,0,0,1-.76-1.51,24.54,24.54,0,0,0,.47-2.74,3.4,3.4,0,0,1,.92-1.85l3.75-3.45A2.29,2.29,0,0,0,374.73,56.56ZM356.66,78.34c-4.58,3.61-9,2.62-9.8-2.19s2.22-11.64,6.8-15.24,9-2.62,9.8,2.19S361.25,74.74,356.66,78.34Z" style="fill:#90D7CB"></path><path d="M374.73,56.56,374,52.48a.67.67,0,0,0-1.11-.49l-3.75,2.47a1.08,1.08,0,0,1-1.5-.34,8.05,8.05,0,0,0-.73-.89,1.88,1.88,0,0,1-.44-1.79l1.91-5.16a1,1,0,0,0-.7-1.29l-2.82-.63a1.53,1.53,0,0,0-1.6.74l-2.65,5.06A2.85,2.85,0,0,1,359,51.37a12.6,12.6,0,0,0-1.74.57,1,1,0,0,1-1.33-.61L355,48.16a.71.71,0,0,0-1.2-.37l-4.23,3.32a2.36,2.36,0,0,0-.8,1.79l.25,4a3.15,3.15,0,0,1-.66,2,30,30,0,0,0-2,2.6,2.21,2.21,0,0,1-1.72.87L342,62.21a1.75,1.75,0,0,0-1.56,1l-2.56,5.73a1.09,1.09,0,0,0,.57,1.45l2.2.94a1.36,1.36,0,0,1,.75,1.51,24.94,24.94,0,0,0-.47,2.74,3.33,3.33,0,0,1-.92,1.85l-3.74,3.45a2.25,2.25,0,0,0-.63,1.85l.7,4.08a.68.68,0,0,0,1.12.49l3.74-2.47a1.1,1.1,0,0,1,1.51.34,8,8,0,0,0,.73.9,1.83,1.83,0,0,1,.43,1.78L341.93,93a1,1,0,0,0,.69,1.29l2.83.63a1.55,1.55,0,0,0,1.6-.74l2.65-5.06a2.77,2.77,0,0,1,1.6-1.2,14.19,14.19,0,0,0,1.74-.58,1,1,0,0,1,1.33.61l1,3.17a.7.7,0,0,0,1.19.37l4.23-3.32a2.36,2.36,0,0,0,.8-1.79l-.25-4a3.21,3.21,0,0,1,.66-1.95,30,30,0,0,0,2-2.6,2.21,2.21,0,0,1,1.73-.87l2.71.14a1.75,1.75,0,0,0,1.57-1l2.55-5.73a1.08,1.08,0,0,0-.57-1.45L369.72,68a1.36,1.36,0,0,1-.76-1.51,24.54,24.54,0,0,0,.47-2.74,3.4,3.4,0,0,1,.92-1.85l3.75-3.45A2.29,2.29,0,0,0,374.73,56.56ZM356.66,78.34c-4.58,3.61-9,2.62-9.8-2.19s2.22-11.64,6.8-15.24,9-2.62,9.8,2.19S361.25,74.74,356.66,78.34Z" style="opacity:0.2"></path><path d="M334.07,98.55h0a1,1,0,0,0-1.06.09l-2.17,1.44-.48,1.3a2.53,2.53,0,0,0,.59,2.42,10.83,10.83,0,0,1,1,1.21,1.48,1.48,0,0,0,2,.45l5.07-3.34a1,1,0,0,1,1-.11Zm-7.81,18.63c-.71-4.11-3.33-6.17-6.73-5.89a10.58,10.58,0,0,1,.7,2.41c1.13,6.52-3,15.76-9.21,20.64a12.58,12.58,0,0,1-6.51,2.91c2,4.37,7.19,4.78,12.54.57C323.26,132.94,327.38,123.69,326.26,117.18Zm.11-27.85h0a1.29,1.29,0,0,0-.4-.16l-3.82-.86a2.08,2.08,0,0,0-2.17,1l-3.6,6.86a3.07,3.07,0,0,1-.8.91h0a3.1,3.1,0,0,1-.61.41l1.12,3.74a1.31,1.31,0,0,0,1.81.82,18.36,18.36,0,0,1,2.35-.77,4.09,4.09,0,0,0,1.37-.71,3,3,0,0,0,.81-.92L326,92.8a2.08,2.08,0,0,1,2.16-1l3.83.86a1.42,1.42,0,0,1,.38.14ZM315.6,155.66a1.09,1.09,0,0,1-.36-.58L314,150.79a1.3,1.3,0,0,0-1.81-.82,17.39,17.39,0,0,1-2.35.77,3.08,3.08,0,0,0-.74.31l.17.55a1.08,1.08,0,0,0,.49.66h0ZM308.27,92.8a.88.88,0,0,0-.42-.11,1.09,1.09,0,0,0-.7.27l-5.73,4.5a1.45,1.45,0,0,0-.22.21,1.22,1.22,0,0,0-.15.17,3.76,3.76,0,0,0-.51.9l-.07.22h0a2.62,2.62,0,0,0-.15.93l.34,5.45a4.35,4.35,0,0,1-.89,2.64c-.94,1.12-1.82,2.3-2.65,3.51a2.92,2.92,0,0,1-1.27,1,2.38,2.38,0,0,1-.5.15,1,1,0,0,1-.24,0,1.22,1.22,0,0,1-.33,0l-3.68-.18H291a1.53,1.53,0,0,0-.3,0,1.31,1.31,0,0,0-.27.06h0a1.88,1.88,0,0,0-.3.12,2.62,2.62,0,0,0-.53.33,2.23,2.23,0,0,0-.59.75l-3.46,7.76a1.47,1.47,0,0,0,.58,1.86l4.09,2.36a1.83,1.83,0,0,1,.09,1.06,35.4,35.4,0,0,0-.64,3.7,4.6,4.6,0,0,1-1.24,2.52l-.06.05-5,4.61a1.55,1.55,0,0,0-.24.27l0,0a1.38,1.38,0,0,0-.2.33,3,3,0,0,0-.38,1.85l1,5.54a1.09,1.09,0,0,0,.44.75l6,3.46a1.06,1.06,0,0,1-.42-.73l-1-5.54a2.57,2.57,0,0,1,.06-1.06,3,3,0,0,1,.79-1.44l5-4.61.06-.06a4.67,4.67,0,0,0,1.24-2.51,33,33,0,0,1,.64-3.7,1.87,1.87,0,0,0-1-2.06l-3-1.26a1.48,1.48,0,0,1-.77-2l3.46-7.76a2.11,2.11,0,0,1,.59-.75,2.33,2.33,0,0,1,1.53-.56l3.69.19a2.27,2.27,0,0,0,1.06-.22,2.87,2.87,0,0,0,1.26-1c.83-1.21,1.73-2.39,2.66-3.52a4.24,4.24,0,0,0,.89-2.63l-.34-5.45a2.44,2.44,0,0,1,.14-.94,3.1,3.1,0,0,1,.95-1.49l5.73-4.5a1,1,0,0,1,1.13-.16Zm-8.59,57.84a2.55,2.55,0,0,0-.6-2.42,9.76,9.76,0,0,1-1-1.21,1.48,1.48,0,0,0-2-.46l-2.89,1.9-2.11,5.7a1.26,1.26,0,0,0,.51,1.55h0l6.05,3.49a1.26,1.26,0,0,1-.51-1.56Z" style="fill:#90D7CB"></path><path d="M334.07,98.55h0a1,1,0,0,0-1.06.09l-2.17,1.44-.48,1.3a2.53,2.53,0,0,0,.59,2.42,10.83,10.83,0,0,1,1,1.21,1.48,1.48,0,0,0,2,.45l5.07-3.34a1,1,0,0,1,1-.11Zm-7.81,18.63c-.71-4.11-3.33-6.17-6.73-5.89a10.58,10.58,0,0,1,.7,2.41c1.13,6.52-3,15.76-9.21,20.64a12.58,12.58,0,0,1-6.51,2.91c2,4.37,7.19,4.78,12.54.57C323.26,132.94,327.38,123.69,326.26,117.18Zm.11-27.85h0a1.29,1.29,0,0,0-.4-.16l-3.82-.86a2.08,2.08,0,0,0-2.17,1l-3.6,6.86a3.07,3.07,0,0,1-.8.91h0a3.1,3.1,0,0,1-.61.41l1.12,3.74a1.31,1.31,0,0,0,1.81.82,18.36,18.36,0,0,1,2.35-.77,4.09,4.09,0,0,0,1.37-.71,3,3,0,0,0,.81-.92L326,92.8a2.08,2.08,0,0,1,2.16-1l3.83.86a1.42,1.42,0,0,1,.38.14ZM315.6,155.66a1.09,1.09,0,0,1-.36-.58L314,150.79a1.3,1.3,0,0,0-1.81-.82,17.39,17.39,0,0,1-2.35.77,3.08,3.08,0,0,0-.74.31l.17.55a1.08,1.08,0,0,0,.49.66h0ZM308.27,92.8a.88.88,0,0,0-.42-.11,1.09,1.09,0,0,0-.7.27l-5.73,4.5a1.45,1.45,0,0,0-.22.21,1.22,1.22,0,0,0-.15.17,3.76,3.76,0,0,0-.51.9l-.07.22h0a2.62,2.62,0,0,0-.15.93l.34,5.45a4.35,4.35,0,0,1-.89,2.64c-.94,1.12-1.82,2.3-2.65,3.51a2.92,2.92,0,0,1-1.27,1,2.38,2.38,0,0,1-.5.15,1,1,0,0,1-.24,0,1.22,1.22,0,0,1-.33,0l-3.68-.18H291a1.53,1.53,0,0,0-.3,0,1.31,1.31,0,0,0-.27.06h0a1.88,1.88,0,0,0-.3.12,2.62,2.62,0,0,0-.53.33,2.23,2.23,0,0,0-.59.75l-3.46,7.76a1.47,1.47,0,0,0,.58,1.86l4.09,2.36a1.83,1.83,0,0,1,.09,1.06,35.4,35.4,0,0,0-.64,3.7,4.6,4.6,0,0,1-1.24,2.52l-.06.05-5,4.61a1.55,1.55,0,0,0-.24.27l0,0a1.38,1.38,0,0,0-.2.33,3,3,0,0,0-.38,1.85l1,5.54a1.09,1.09,0,0,0,.44.75l6,3.46a1.06,1.06,0,0,1-.42-.73l-1-5.54a2.57,2.57,0,0,1,.06-1.06,3,3,0,0,1,.79-1.44l5-4.61.06-.06a4.67,4.67,0,0,0,1.24-2.51,33,33,0,0,1,.64-3.7,1.87,1.87,0,0,0-1-2.06l-3-1.26a1.48,1.48,0,0,1-.77-2l3.46-7.76a2.11,2.11,0,0,1,.59-.75,2.33,2.33,0,0,1,1.53-.56l3.69.19a2.27,2.27,0,0,0,1.06-.22,2.87,2.87,0,0,0,1.26-1c.83-1.21,1.73-2.39,2.66-3.52a4.24,4.24,0,0,0,.89-2.63l-.34-5.45a2.44,2.44,0,0,1,.14-.94,3.1,3.1,0,0,1,.95-1.49l5.73-4.5a1,1,0,0,1,1.13-.16Zm-8.59,57.84a2.55,2.55,0,0,0-.6-2.42,9.76,9.76,0,0,1-1-1.21,1.48,1.48,0,0,0-2-.46l-2.89,1.9-2.11,5.7a1.26,1.26,0,0,0,.51,1.55h0l6.05,3.49a1.26,1.26,0,0,1-.51-1.56Z" style="opacity:0.30000000000000004"></path><path d="M294.39,136.59l-5,4.61a3,3,0,0,0-.79,1.44l-6-3.47a3.66,3.66,0,0,1,.3-.8,1.38,1.38,0,0,1,.2-.33l0,0a1.55,1.55,0,0,1,.24-.27l5-4.61Z" style="fill:#90D7CB"></path><path d="M301.89,115.94a2.27,2.27,0,0,1-1.06.22l-3.69-.19a2.33,2.33,0,0,0-1.53.56l-6-3.48a2.62,2.62,0,0,1,.53-.33,1.88,1.88,0,0,1,.3-.12h0a1.31,1.31,0,0,1,.27-.06,1.53,1.53,0,0,1,.3,0h.09l3.68.18a1.22,1.22,0,0,0,.33,0l.24,0a4.5,4.5,0,0,0,.48-.16h0Z" style="fill:#90D7CB"></path><path d="M340.08,102a1,1,0,0,0-1,.12L334,105.47a1.48,1.48,0,0,1-2-.46,9.83,9.83,0,0,0-1-1.21,2.51,2.51,0,0,1-.59-2.42l.48-1.29L333,98.66a1,1,0,0,1,1.06-.1h0Z" style="fill:#90D7CB"></path><path d="M332.38,92.8a1.42,1.42,0,0,0-.38-.14l-3.83-.86a2.08,2.08,0,0,0-2.16,1l-3.59,6.86a3,3,0,0,1-.81.92l-6-3.49a3.07,3.07,0,0,0,.8-.91l3.6-6.86a2.08,2.08,0,0,1,2.17-1l3.82.86a1.29,1.29,0,0,1,.4.16h0Z" style="fill:#90D7CB"></path><path d="M314.31,96.28a1,1,0,0,0-1.13.16l-5.73,4.5a3.1,3.1,0,0,0-.95,1.49l-6-3.47.07-.22a3.76,3.76,0,0,1,.51-.9,1.22,1.22,0,0,1,.15-.17,1.45,1.45,0,0,1,.22-.21l5.73-4.5a1.09,1.09,0,0,1,.7-.27.88.88,0,0,1,.42.11Z" style="fill:#90D7CB"></path><path d="M341.51,108.33l-.95-5.54a.91.91,0,0,0-1.51-.65L334,105.47a1.47,1.47,0,0,1-2-.46,11.83,11.83,0,0,0-1-1.21,2.5,2.5,0,0,1-.59-2.41l2.58-7a1.28,1.28,0,0,0-.94-1.74l-3.82-.85a2.09,2.09,0,0,0-2.17,1l-3.59,6.85a3.75,3.75,0,0,1-2.17,1.63,19.71,19.71,0,0,0-2.36.78,1.31,1.31,0,0,1-1.81-.82L314.79,97a1,1,0,0,0-1.61-.51l-5.73,4.5a3.22,3.22,0,0,0-1.09,2.43l.34,5.45a4.35,4.35,0,0,1-.89,2.64,43.86,43.86,0,0,0-2.66,3.52,3,3,0,0,1-2.33,1.18l-3.68-.18a2.34,2.34,0,0,0-2.11,1.29L291.56,125a1.49,1.49,0,0,0,.77,2l3,1.27a1.85,1.85,0,0,1,1,2,35,35,0,0,0-.64,3.7,4.6,4.6,0,0,1-1.24,2.51l-5.07,4.67a3.08,3.08,0,0,0-.86,2.5l1,5.53a.91.91,0,0,0,1.51.66l5.07-3.34a1.48,1.48,0,0,1,2,.46,9.76,9.76,0,0,0,1,1.21,2.5,2.5,0,0,1,.6,2.42l-2.59,7a1.28,1.28,0,0,0,1,1.74l3.82.85a2.06,2.06,0,0,0,2.17-1l3.59-6.85a3.83,3.83,0,0,1,2.17-1.63,17.47,17.47,0,0,0,2.35-.78,1.31,1.31,0,0,1,1.81.83l1.29,4.29a1,1,0,0,0,1.62.51l5.73-4.5a3.25,3.25,0,0,0,1.09-2.43l-.35-5.45a4.35,4.35,0,0,1,.89-2.64,43.86,43.86,0,0,0,2.66-3.52,3,3,0,0,1,2.33-1.18l3.69.18a2.36,2.36,0,0,0,2.11-1.3l3.46-7.76a1.46,1.46,0,0,0-.77-2l-3-1.27a1.83,1.83,0,0,1-1-2.05,35.78,35.78,0,0,0,.63-3.7,4.67,4.67,0,0,1,1.24-2.52l5.08-4.67A3.07,3.07,0,0,0,341.51,108.33Zm-24.46,29.49c-6.21,4.88-12.15,3.55-13.27-3s3-15.76,9.21-20.64,12.14-3.55,13.27,3S323.26,132.94,317.05,137.82Z" style="fill:#90D7CB"></path><path d="M341.51,108.33l-.95-5.54a.91.91,0,0,0-1.51-.65L334,105.47a1.47,1.47,0,0,1-2-.46,11.83,11.83,0,0,0-1-1.21,2.5,2.5,0,0,1-.59-2.41l2.58-7a1.28,1.28,0,0,0-.94-1.74l-3.82-.85a2.09,2.09,0,0,0-2.17,1l-3.59,6.85a3.75,3.75,0,0,1-2.17,1.63,19.71,19.71,0,0,0-2.36.78,1.31,1.31,0,0,1-1.81-.82L314.79,97a1,1,0,0,0-1.61-.51l-5.73,4.5a3.22,3.22,0,0,0-1.09,2.43l.34,5.45a4.35,4.35,0,0,1-.89,2.64,43.86,43.86,0,0,0-2.66,3.52,3,3,0,0,1-2.33,1.18l-3.68-.18a2.34,2.34,0,0,0-2.11,1.29L291.56,125a1.49,1.49,0,0,0,.77,2l3,1.27a1.85,1.85,0,0,1,1,2,35,35,0,0,0-.64,3.7,4.6,4.6,0,0,1-1.24,2.51l-5.07,4.67a3.08,3.08,0,0,0-.86,2.5l1,5.53a.91.91,0,0,0,1.51.66l5.07-3.34a1.48,1.48,0,0,1,2,.46,9.76,9.76,0,0,0,1,1.21,2.5,2.5,0,0,1,.6,2.42l-2.59,7a1.28,1.28,0,0,0,1,1.74l3.82.85a2.06,2.06,0,0,0,2.17-1l3.59-6.85a3.83,3.83,0,0,1,2.17-1.63,17.47,17.47,0,0,0,2.35-.78,1.31,1.31,0,0,1,1.81.83l1.29,4.29a1,1,0,0,0,1.62.51l5.73-4.5a3.25,3.25,0,0,0,1.09-2.43l-.35-5.45a4.35,4.35,0,0,1,.89-2.64,43.86,43.86,0,0,0,2.66-3.52,3,3,0,0,1,2.33-1.18l3.69.18a2.36,2.36,0,0,0,2.11-1.3l3.46-7.76a1.46,1.46,0,0,0-.77-2l-3-1.27a1.83,1.83,0,0,1-1-2.05,35.78,35.78,0,0,0,.63-3.7,4.67,4.67,0,0,1,1.24-2.52l5.08-4.67A3.07,3.07,0,0,0,341.51,108.33Zm-24.46,29.49c-6.21,4.88-12.15,3.55-13.27-3s3-15.76,9.21-20.64,12.14-3.55,13.27,3S323.26,132.94,317.05,137.82Z" style="opacity:0.2"></path><path d="M397.43,76.88h0a.6.6,0,0,0-.65.06l-1.33.88-.3.8a1.53,1.53,0,0,0,.36,1.48,6.43,6.43,0,0,1,.61.75.9.9,0,0,0,1.25.27l3.12-2a.63.63,0,0,1,.64-.06Zm-4.8,11.45c-.44-2.53-2-3.79-4.13-3.62a6.83,6.83,0,0,1,.43,1.48c.69,4-1.85,9.69-5.66,12.69a7.76,7.76,0,0,1-4,1.78c1.25,2.69,4.42,2.94,7.71.35C390.79,98,393.32,92.33,392.63,88.33Zm.07-17.11h0a.82.82,0,0,0-.25-.1l-2.34-.52a1.25,1.25,0,0,0-1.33.61l-2.22,4.21a1.71,1.71,0,0,1-.49.56h0a2,2,0,0,1-.38.26l.69,2.3a.8.8,0,0,0,1.11.5,9.76,9.76,0,0,1,1.45-.47,2.67,2.67,0,0,0,.83-.44,1.77,1.77,0,0,0,.5-.57l2.21-4.21a1.29,1.29,0,0,1,1.33-.62l2.35.53a.85.85,0,0,1,.24.09ZM386.08,112a.79.79,0,0,1-.22-.36l-.79-2.64a.8.8,0,0,0-1.11-.5,9.4,9.4,0,0,1-1.45.47,2.16,2.16,0,0,0-.45.19l.1.34a.7.7,0,0,0,.3.41h0Zm-4.5-38.63a.59.59,0,0,0-.26-.07.66.66,0,0,0-.43.17l-3.52,2.76-.14.13-.09.11a2.45,2.45,0,0,0-.31.55s0,.09,0,.14h0a1.64,1.64,0,0,0-.09.56l.21,3.35a2.6,2.6,0,0,1-.55,1.62,26.7,26.7,0,0,0-1.63,2.17,1.77,1.77,0,0,1-.77.59,1.39,1.39,0,0,1-.31.1l-.15,0a.69.69,0,0,1-.2,0L371,85.45H371l-.18,0-.17,0h0l-.18.08a1.38,1.38,0,0,0-.33.2,1.44,1.44,0,0,0-.36.46L367.61,91a.91.91,0,0,0,.36,1.15l2.51,1.44a1.15,1.15,0,0,1,.06.66,20.81,20.81,0,0,0-.4,2.27,2.78,2.78,0,0,1-.76,1.55l0,0L366.26,101l-.15.17s0,0,0,0a.86.86,0,0,0-.13.2,1.81,1.81,0,0,0-.23,1.14l.59,3.4a.65.65,0,0,0,.27.46l3.69,2.13A.67.67,0,0,1,370,108l-.58-3.4a1.6,1.6,0,0,1,0-.65,1.84,1.84,0,0,1,.49-.89l3.08-2.84,0,0a2.88,2.88,0,0,0,.76-1.54q.13-1.12.39-2.28a1.14,1.14,0,0,0-.62-1.26l-1.83-.77a.92.92,0,0,1-.48-1.21l2.13-4.77a1.31,1.31,0,0,1,.36-.46,1.42,1.42,0,0,1,.94-.34l2.26.11a1.58,1.58,0,0,0,.66-.13,1.72,1.72,0,0,0,.77-.6c.51-.74,1.06-1.47,1.64-2.16a2.63,2.63,0,0,0,.54-1.62l-.21-3.34a1.52,1.52,0,0,1,.09-.58,1.86,1.86,0,0,1,.59-.92l3.51-2.77a.6.6,0,0,1,.7-.09Zm-5.28,35.54a1.56,1.56,0,0,0-.37-1.48,6.36,6.36,0,0,1-.6-.75.9.9,0,0,0-1.25-.28l-1.78,1.17-1.3,3.5a.77.77,0,0,0,.32,1h0l3.72,2.14a.78.78,0,0,1-.32-1Z" style="fill:#90D7CB"></path><path d="M397.43,76.88h0a.6.6,0,0,0-.65.06l-1.33.88-.3.8a1.53,1.53,0,0,0,.36,1.48,6.43,6.43,0,0,1,.61.75.9.9,0,0,0,1.25.27l3.12-2a.63.63,0,0,1,.64-.06Zm-4.8,11.45c-.44-2.53-2-3.79-4.13-3.62a6.83,6.83,0,0,1,.43,1.48c.69,4-1.85,9.69-5.66,12.69a7.76,7.76,0,0,1-4,1.78c1.25,2.69,4.42,2.94,7.71.35C390.79,98,393.32,92.33,392.63,88.33Zm.07-17.11h0a.82.82,0,0,0-.25-.1l-2.34-.52a1.25,1.25,0,0,0-1.33.61l-2.22,4.21a1.71,1.71,0,0,1-.49.56h0a2,2,0,0,1-.38.26l.69,2.3a.8.8,0,0,0,1.11.5,9.76,9.76,0,0,1,1.45-.47,2.67,2.67,0,0,0,.83-.44,1.77,1.77,0,0,0,.5-.57l2.21-4.21a1.29,1.29,0,0,1,1.33-.62l2.35.53a.85.85,0,0,1,.24.09ZM386.08,112a.79.79,0,0,1-.22-.36l-.79-2.64a.8.8,0,0,0-1.11-.5,9.4,9.4,0,0,1-1.45.47,2.16,2.16,0,0,0-.45.19l.1.34a.7.7,0,0,0,.3.41h0Zm-4.5-38.63a.59.59,0,0,0-.26-.07.66.66,0,0,0-.43.17l-3.52,2.76-.14.13-.09.11a2.45,2.45,0,0,0-.31.55s0,.09,0,.14h0a1.64,1.64,0,0,0-.09.56l.21,3.35a2.6,2.6,0,0,1-.55,1.62,26.7,26.7,0,0,0-1.63,2.17,1.77,1.77,0,0,1-.77.59,1.39,1.39,0,0,1-.31.1l-.15,0a.69.69,0,0,1-.2,0L371,85.45H371l-.18,0-.17,0h0l-.18.08a1.38,1.38,0,0,0-.33.2,1.44,1.44,0,0,0-.36.46L367.61,91a.91.91,0,0,0,.36,1.15l2.51,1.44a1.15,1.15,0,0,1,.06.66,20.81,20.81,0,0,0-.4,2.27,2.78,2.78,0,0,1-.76,1.55l0,0L366.26,101l-.15.17s0,0,0,0a.86.86,0,0,0-.13.2,1.81,1.81,0,0,0-.23,1.14l.59,3.4a.65.65,0,0,0,.27.46l3.69,2.13A.67.67,0,0,1,370,108l-.58-3.4a1.6,1.6,0,0,1,0-.65,1.84,1.84,0,0,1,.49-.89l3.08-2.84,0,0a2.88,2.88,0,0,0,.76-1.54q.13-1.12.39-2.28a1.14,1.14,0,0,0-.62-1.26l-1.83-.77a.92.92,0,0,1-.48-1.21l2.13-4.77a1.31,1.31,0,0,1,.36-.46,1.42,1.42,0,0,1,.94-.34l2.26.11a1.58,1.58,0,0,0,.66-.13,1.72,1.72,0,0,0,.77-.6c.51-.74,1.06-1.47,1.64-2.16a2.63,2.63,0,0,0,.54-1.62l-.21-3.34a1.52,1.52,0,0,1,.09-.58,1.86,1.86,0,0,1,.59-.92l3.51-2.77a.6.6,0,0,1,.7-.09Zm-5.28,35.54a1.56,1.56,0,0,0-.37-1.48,6.36,6.36,0,0,1-.6-.75.9.9,0,0,0-1.25-.28l-1.78,1.17-1.3,3.5a.77.77,0,0,0,.32,1h0l3.72,2.14a.78.78,0,0,1-.32-1Z" style="opacity:0.30000000000000004"></path><path d="M373.05,100.25,370,103.09a1.84,1.84,0,0,0-.49.89l-3.69-2.14a2.22,2.22,0,0,1,.18-.49.86.86,0,0,1,.13-.2s0,0,0,0l.15-.17,3.09-2.83Z" style="fill:#90D7CB"></path><path d="M377.66,87.57a1.58,1.58,0,0,1-.66.13l-2.26-.11a1.42,1.42,0,0,0-.94.34l-3.7-2.14a1.38,1.38,0,0,1,.33-.2l.18-.08h0l.17,0,.18,0H371l2.26.11a.69.69,0,0,0,.2,0l.15,0,.29-.1h0Z" style="fill:#90D7CB"></path><path d="M401.13,79a.6.6,0,0,0-.64.08l-3.12,2a.92.92,0,0,1-1.25-.29,5.45,5.45,0,0,0-.61-.74,1.55,1.55,0,0,1-.36-1.49l.3-.79,1.33-.88a.59.59,0,0,1,.65-.06h0Z" style="fill:#90D7CB"></path><path d="M396.4,73.35a.85.85,0,0,0-.24-.09l-2.35-.53a1.29,1.29,0,0,0-1.33.62l-2.21,4.21a1.77,1.77,0,0,1-.5.57L386.07,76a1.71,1.71,0,0,0,.49-.56l2.22-4.21a1.25,1.25,0,0,1,1.33-.61l2.34.52a.82.82,0,0,1,.25.1h0Z" style="fill:#90D7CB"></path><path d="M385.29,75.49a.6.6,0,0,0-.7.09l-3.51,2.77a1.86,1.86,0,0,0-.59.92l-3.7-2.13s0-.1,0-.14a2.45,2.45,0,0,1,.31-.55l.09-.11.14-.13,3.52-2.76a.66.66,0,0,1,.43-.17.59.59,0,0,1,.26.07Z" style="fill:#90D7CB"></path><path d="M402,82.89l-.59-3.4a.56.56,0,0,0-.93-.4l-3.12,2a.91.91,0,0,1-1.25-.29,7.18,7.18,0,0,0-.6-.74,1.51,1.51,0,0,1-.37-1.48l1.59-4.3a.78.78,0,0,0-.58-1.07l-2.35-.52a1.26,1.26,0,0,0-1.33.61l-2.21,4.21a2.31,2.31,0,0,1-1.33,1,10.69,10.69,0,0,0-1.45.48.8.8,0,0,1-1.11-.51l-.79-2.63a.59.59,0,0,0-1-.32l-3.52,2.77a2,2,0,0,0-.66,1.49l.21,3.35a2.64,2.64,0,0,1-.55,1.62c-.58.69-1.12,1.42-1.64,2.17a1.79,1.79,0,0,1-1.43.72l-2.26-.11a1.46,1.46,0,0,0-1.3.8l-2.13,4.77a.91.91,0,0,0,.48,1.2l1.82.78a1.14,1.14,0,0,1,.63,1.26q-.25,1.16-.39,2.28a2.88,2.88,0,0,1-.76,1.54L370,103.09a1.87,1.87,0,0,0-.52,1.54L370,108a.56.56,0,0,0,.93.4l3.12-2.05a.9.9,0,0,1,1.25.28,7.58,7.58,0,0,0,.6.75,1.51,1.51,0,0,1,.37,1.48l-1.59,4.3a.79.79,0,0,0,.58,1.07l2.35.52a1.26,1.26,0,0,0,1.33-.62l2.21-4.2a2.32,2.32,0,0,1,1.33-1,12.2,12.2,0,0,0,1.45-.47.79.79,0,0,1,1.11.5l.79,2.64a.59.59,0,0,0,1,.31l3.52-2.77a2,2,0,0,0,.67-1.49l-.21-3.35a2.63,2.63,0,0,1,.54-1.62,26.66,26.66,0,0,0,1.64-2.16,1.84,1.84,0,0,1,1.43-.73l2.26.12a1.48,1.48,0,0,0,1.3-.8l2.13-4.77a.91.91,0,0,0-.48-1.21l-1.82-.78a1.14,1.14,0,0,1-.63-1.26,20.34,20.34,0,0,0,.39-2.27,2.91,2.91,0,0,1,.76-1.55l3.12-2.86A1.92,1.92,0,0,0,402,82.89ZM387,101c-3.81,3-7.46,2.18-8.15-1.82s1.84-9.69,5.66-12.69,7.46-2.18,8.15,1.83S390.79,98,387,101Z" style="fill:#90D7CB"></path><path d="M402,82.89l-.59-3.4a.56.56,0,0,0-.93-.4l-3.12,2a.91.91,0,0,1-1.25-.29,7.18,7.18,0,0,0-.6-.74,1.51,1.51,0,0,1-.37-1.48l1.59-4.3a.78.78,0,0,0-.58-1.07l-2.35-.52a1.26,1.26,0,0,0-1.33.61l-2.21,4.21a2.31,2.31,0,0,1-1.33,1,10.69,10.69,0,0,0-1.45.48.8.8,0,0,1-1.11-.51l-.79-2.63a.59.59,0,0,0-1-.32l-3.52,2.77a2,2,0,0,0-.66,1.49l.21,3.35a2.64,2.64,0,0,1-.55,1.62c-.58.69-1.12,1.42-1.64,2.17a1.79,1.79,0,0,1-1.43.72l-2.26-.11a1.46,1.46,0,0,0-1.3.8l-2.13,4.77a.91.91,0,0,0,.48,1.2l1.82.78a1.14,1.14,0,0,1,.63,1.26q-.25,1.16-.39,2.28a2.88,2.88,0,0,1-.76,1.54L370,103.09a1.87,1.87,0,0,0-.52,1.54L370,108a.56.56,0,0,0,.93.4l3.12-2.05a.9.9,0,0,1,1.25.28,7.58,7.58,0,0,0,.6.75,1.51,1.51,0,0,1,.37,1.48l-1.59,4.3a.79.79,0,0,0,.58,1.07l2.35.52a1.26,1.26,0,0,0,1.33-.62l2.21-4.2a2.32,2.32,0,0,1,1.33-1,12.2,12.2,0,0,0,1.45-.47.79.79,0,0,1,1.11.5l.79,2.64a.59.59,0,0,0,1,.31l3.52-2.77a2,2,0,0,0,.67-1.49l-.21-3.35a2.63,2.63,0,0,1,.54-1.62,26.66,26.66,0,0,0,1.64-2.16,1.84,1.84,0,0,1,1.43-.73l2.26.12a1.48,1.48,0,0,0,1.3-.8l2.13-4.77a.91.91,0,0,0-.48-1.21l-1.82-.78a1.14,1.14,0,0,1-.63-1.26,20.34,20.34,0,0,0,.39-2.27,2.91,2.91,0,0,1,.76-1.55l3.12-2.86A1.92,1.92,0,0,0,402,82.89ZM387,101c-3.81,3-7.46,2.18-8.15-1.82s1.84-9.69,5.66-12.69,7.46-2.18,8.15,1.83S390.79,98,387,101Z" style="opacity:0.2"></path></g></g><g id="freepik--Device--inject-68"><g id="freepik--Laptop--inject-68"><path d="M73.8,366.39c0,3.36,2.52,7.53,5.62,9.32L201.6,446.27a12.39,12.39,0,0,0,11.22,0L428,322.05c3.1-1.79,5.61-6,5.61-9.32s-2.51-7.53-5.61-9.32L305.79,232.86a12.39,12.39,0,0,0-11.22,0L79.42,357.07C76.32,358.86,73.8,363,73.8,366.39Z" style="fill:#37474f"></path><path d="M79.42,363.55,201.6,434.11a12.39,12.39,0,0,0,11.22,0L428,309.89c3.1-1.79,3.1-4.69,0-6.48L305.79,232.86a12.39,12.39,0,0,0-11.22,0L79.42,357.07C76.32,358.86,76.32,361.76,79.42,363.55Z" style="fill:#455a64"></path><path d="M207.21,435.46V447.6a11.49,11.49,0,0,1-5.61-1.33L79.41,375.71c-3.09-1.79-5.61-6-5.61-9.32,0-3.15,2.22-7,5-8.95-2.51,1.8-2.32,4.44.57,6.11L201.6,434.11A11.39,11.39,0,0,0,207.21,435.46Z" style="fill:#263238"></path><path d="M300.18,54.38V223.13a12.35,12.35,0,0,1-5.62,9.72L79.42,357.07a4.22,4.22,0,0,1-.67.34l-.06,0-.35.15a10.84,10.84,0,0,1-9.63-1.16c-2.8-2.12-2.92-3.47-2.92-7.24V180.41a12.46,12.46,0,0,1,5.61-9.71L286.55,46.48c3.1-1.78,8-1.88,10.87-.21S300.18,50.79,300.18,54.38Z" style="fill:#37474f"></path><path d="M300.18,54.37c0-3.58-2.52-5-5.61-3.24L79.41,175.35a11.28,11.28,0,0,0-4,4.19l-8-4.65h0a11.58,11.58,0,0,1,4-4.2L286.55,46.48c3.1-1.79,8-1.88,10.87-.2S300.18,50.79,300.18,54.37Z" style="fill:#455a64"></path><path d="M78.69,357.44l-.35.15a10.84,10.84,0,0,1-9.63-1.16c-2.8-2.12-2.92-3.47-2.92-7.24V180.41a11.29,11.29,0,0,1,1.65-5.52l8,4.64h0a11.54,11.54,0,0,0-1.65,5.52V353.84C73.8,357.12,75.93,358.62,78.69,357.44Z" style="fill:#263238"></path><path d="M82.43,181.82,289.87,62.09c1.86-1.07,3.36-.2,3.36,2V216.17a7.45,7.45,0,0,1-3.36,5.84L82.43,341.73c-1.86,1.08-3.36.21-3.36-1.94V187.65A7.44,7.44,0,0,1,82.43,181.82Z" style="fill:#90D7CB"></path><path d="M82.43,181.82,289.87,62.09c1.86-1.07,3.36-.2,3.36,2V216.17a7.45,7.45,0,0,1-3.36,5.84L82.43,341.73c-1.86,1.08-3.36.21-3.36-1.94V187.65A7.44,7.44,0,0,1,82.43,181.82Z" style="opacity:0.30000000000000004"></path><path d="M95,357.4l199.7-115.29a6.17,6.17,0,0,1,5.61,0l3.33,1.82c1.55.9,1.55,2.35,0,3.24L103.85,362.45a6.17,6.17,0,0,1-5.61,0L95,360.64C93.4,359.75,93.4,358.3,95,357.4Z" style="fill:#37474f"></path><path d="M110.61,366.72l199.7-115.3a5.71,5.71,0,0,1,5.13-.28l52,30c1.28.74,1.07,2.07-.48,3L167.46,399.25a5.71,5.71,0,0,1-5.13.29l-52.2-29.87C108.85,368.93,109.06,367.61,110.61,366.72Z" style="fill:#263238"></path><path d="M283.66,299.85l6.25-3.61c.26-.16.29-.39,0-.53l-6-3.45a1,1,0,0,0-.91,0l-6.25,3.61c-.27.15-.29.39-.05.52l6,3.46A1,1,0,0,0,283.66,299.85Zm-9.13-12.5L268.27,291c-.26.16-.29.39,0,.53l6,3.45a1,1,0,0,0,.91,0l6.25-3.61c.27-.15.29-.39.06-.52l-6-3.46A1,1,0,0,0,274.53,287.35ZM254.32,299l-10.58,6.11c-.26.15-.29.39-.05.52l6,3.46a1,1,0,0,0,.91,0l10.58-6.1c.27-.16.29-.39,0-.53l-6-3.45A1,1,0,0,0,254.32,299Zm11.07-6.39-6.26,3.61c-.26.15-.29.39-.05.52l6,3.46a1,1,0,0,0,.91,0l6.25-3.61c.27-.16.29-.39.06-.53l-6-3.45A1,1,0,0,0,265.39,292.63Zm-24.53,14.16-6.26,3.61c-.26.16-.29.39,0,.53l6,3.45a1,1,0,0,0,.91,0l6.25-3.61c.27-.15.29-.39.06-.52l-6-3.46A1,1,0,0,0,240.86,306.79Zm-9.14,5.28-6.25,3.61c-.27.15-.29.39-.06.52l6,3.46a1,1,0,0,0,.91,0l6.26-3.61c.26-.16.28-.39.05-.53l-6-3.45A1,1,0,0,0,231.72,312.07Zm23.45,14.09,6.25-3.61c.26-.15.29-.39.05-.52l-6-3.46a1,1,0,0,0-.91,0l-6.25,3.6c-.27.16-.29.39-.06.53l6,3.45A1,1,0,0,0,255.17,326.16ZM246,331.44l6.25-3.61c.27-.16.29-.39.05-.53l-6-3.45a1,1,0,0,0-.91,0l-6.25,3.61c-.27.15-.29.39-.05.53l6,3.45A1,1,0,0,0,246,331.44Zm-9.14,5.27,6.25-3.61c.27-.15.29-.38.05-.52l-6-3.45a1,1,0,0,0-.91,0l-6.25,3.61c-.26.15-.29.39-.05.52l6,3.46A1,1,0,0,0,236.89,336.71ZM227.75,342l6.25-3.61c.27-.15.29-.39.06-.52l-6-3.46a1,1,0,0,0-.9,0L220.91,338c-.26.16-.29.39,0,.53l6,3.45A1,1,0,0,0,227.75,342Zm46.77-36.87,6.25-3.61c.26-.15.29-.39.05-.52l-6-3.46a1,1,0,0,0-.91,0l-6.25,3.61c-.27.16-.29.39-.05.53l6,3.45A1,1,0,0,0,274.52,305.12ZM264.3,320.89l13.95-8.06c.27-.15.29-.39.06-.52l-14.53-8.39a1,1,0,0,0-.91,0l-7.21,4.17c-.27.15-.29.39-.06.52l7.69,4.44c.24.14.21.37-.05.53l-5.77,3.33c-.27.15-.29.39-.06.52l6,3.46A1,1,0,0,0,264.3,320.89Zm-41.72-3.54L216.33,321c-.27.15-.29.38-.06.52l6,3.45a1,1,0,0,0,.9,0l6.26-3.61c.26-.15.29-.39.05-.52l-6-3.46A1,1,0,0,0,222.58,317.35Zm-9.14,5.27-6.25,3.61c-.27.16-.29.39-.06.53l6,3.45a1,1,0,0,0,.9,0l6.26-3.61c.26-.15.29-.39.05-.53l-6-3.45A1,1,0,0,0,213.44,322.62ZM162.87,379a1,1,0,0,0,.91,0l6.25-3.61c.27-.15.29-.38.06-.52l-6-3.45a1,1,0,0,0-.91,0L156.94,375c-.26.15-.29.38-.05.52Zm-22.54-14.13-6.25,3.61c-.27.15-.29.39-.05.53l6,3.45a1,1,0,0,0,.91,0l6.25-3.61c.26-.15.29-.39.05-.53l-6-3.45A1,1,0,0,0,140.33,364.83Zm11.59,10.58a1,1,0,0,0,.91,0l6.25-3.61c.27-.15.29-.39,0-.53l-6-3.45a1,1,0,0,0-.91,0L146,371.43c-.26.16-.29.39-.05.53Zm25.21,5.67,6.26-3.61c.26-.15.29-.39.05-.52l-6-3.46a1,1,0,0,0-.91,0l-6.25,3.61c-.27.16-.29.39-.06.53l6,3.45A1,1,0,0,0,177.13,381.08Zm-10,5.31a1,1,0,0,0,.91,0l6.25-3.61c.26-.16.29-.39.05-.53l-6-3.45a1,1,0,0,0-.91,0l-6.25,3.61c-.27.15-.29.39,0,.52Zm-17.62-26.83-6.25,3.61c-.27.15-.29.38-.06.52l6,3.45a1,1,0,0,0,.9,0l6.26-3.61c.26-.15.29-.39.05-.52l-6-3.46A1,1,0,0,0,149.47,359.56Zm45.69-26.39-6.25,3.61c-.26.16-.29.39,0,.53l6,3.45a1,1,0,0,0,.91,0l6.25-3.61c.27-.15.29-.39.05-.52l-6-3.46A1,1,0,0,0,195.16,333.17Zm-36.55,21.11-6.25,3.61c-.27.15-.29.39-.06.52l6,3.46a1,1,0,0,0,.91,0l6.26-3.61c.26-.16.29-.39.05-.53l-6-3.45A1,1,0,0,0,158.61,354.28ZM204.3,327.9l-6.25,3.61c-.27.15-.29.39-.05.52l6,3.46a1,1,0,0,0,.91,0l6.25-3.61c.26-.16.29-.39.05-.53l-6-3.45A1,1,0,0,0,204.3,327.9ZM186,338.45l-6.26,3.61c-.26.15-.29.39-.05.53l6,3.45a1,1,0,0,0,.91,0l6.25-3.61c.27-.16.29-.39.06-.53l-6-3.45A1,1,0,0,0,186,338.45Zm-9.14,5.28-6.26,3.61c-.26.15-.29.39,0,.52l6,3.45a1,1,0,0,0,.91,0l6.25-3.61c.27-.15.29-.38.06-.52l-6-3.45A1,1,0,0,0,176.89,343.73ZM167.75,349l-6.25,3.61c-.27.16-.29.39-.06.53l6,3.45a1,1,0,0,0,.91,0l6.25-3.61c.27-.15.29-.39.06-.52l-6-3.46A1,1,0,0,0,167.75,349Zm41.72,3.54,6.25-3.61c.27-.15.29-.39.06-.52l-6-3.46a1,1,0,0,0-.91,0l-6.25,3.61c-.27.15-.29.38-.06.52l6,3.45A1,1,0,0,0,209.47,352.54Zm85.26-76.85-6.26,3.61c-.26.15-.29.39-.05.53l6,3.45a1,1,0,0,0,.91,0l6.25-3.61c.27-.15.29-.39.06-.53l-6-3.45A1,1,0,0,0,294.73,275.69Zm-11.07,6.39-6.25,3.61c-.26.15-.29.39-.05.52l6,3.46a1,1,0,0,0,.91,0L290.5,286c.27-.16.29-.39.05-.53l-6-3.45A1,1,0,0,0,283.66,282.08Zm20.21-11.66L297.61,274c-.26.15-.29.38-.05.52l6,3.45a1,1,0,0,0,.91,0l6.25-3.61c.27-.15.29-.39.06-.52l-6-3.46A1,1,0,0,0,303.87,270.42Zm-50.52,46.92,6.26-3.61c.26-.15.29-.39.05-.52l-6-3.46a1,1,0,0,0-.91,0l-6.25,3.61c-.27.16-.29.39-.06.53l6,3.45A1,1,0,0,0,253.35,317.34Zm60.56-52.23a1,1,0,0,0-.91,0l-6.25,3.61c-.26.15-.29.39-.05.52l6,3.46a1,1,0,0,0,.91,0l6.25-3.61c.27-.16.29-.39.05-.53Zm-95.3,82.16,6.25-3.61c.27-.16.29-.39.06-.53l-6-3.45a1,1,0,0,0-.91,0l-6.26,3.61c-.26.15-.29.39-.05.52l6,3.46A1,1,0,0,0,218.61,347.27Zm112.07-64.71,6.25-3.61c.27-.15.29-.38.06-.52L331,275a1,1,0,0,0-.9,0l-6.26,3.61c-.26.15-.29.39,0,.52l6,3.45A1,1,0,0,0,330.68,282.56Zm-17.68.35,6.25-3.61c.26-.16.29-.39.05-.53l-6-3.45a1,1,0,0,0-.91,0L306.16,279c-.27.15-.29.39-.06.52l6,3.46A1,1,0,0,0,313,282.91ZM322.46,270a1,1,0,0,0-.91,0l-6.25,3.61c-.27.16-.29.39-.06.53l6,3.45a1,1,0,0,0,.9,0l6.26-3.61c.26-.15.29-.39.05-.52Zm1.92-1.11,14.53,8.39a1,1,0,0,0,.91,0l6.25-3.61c.27-.16.29-.39.05-.53l-14.52-8.38a1,1,0,0,0-.91,0l-6.25,3.61C324.17,268.56,324.15,268.8,324.38,268.93Zm-21.11,11.7L297,284.24c-.27.15-.29.38,0,.52l6,3.45a1,1,0,0,0,.91,0l6.25-3.61c.26-.15.29-.39.05-.52l-6-3.46A1,1,0,0,0,303.27,280.63Zm-68.78,39.71L228.24,324c-.27.15-.29.38-.05.52l6,3.45a1,1,0,0,0,.91,0l6.25-3.61c.26-.15.29-.39,0-.52l-6-3.46A1,1,0,0,0,234.49,320.34Zm86.14-32.47a1,1,0,0,0,.91,0l6.25-3.61c.27-.15.29-.39.06-.52l-6-3.46a1,1,0,0,0-.91,0l-6.26,3.61c-.26.16-.29.39-.05.53Zm-77,27.19-6.25,3.61c-.27.15-.29.39-.06.52l6,3.46a1,1,0,0,0,.9,0l6.26-3.61c.26-.16.29-.39.05-.53l-6-3.45A1,1,0,0,0,243.63,315.06ZM172,373.68a1,1,0,0,0,.91,0l6.25-3.61c.27-.16.29-.39.05-.53l-6-3.45a1,1,0,0,0-.91,0l-6.25,3.61c-.26.15-.29.39-.05.52Zm-10.63-11.13-6.25,3.61c-.27.15-.29.38,0,.52l6,3.45a1,1,0,0,0,.91,0l6.25-3.61c.27-.15.29-.39.05-.52l-6-3.46A1,1,0,0,0,161.38,362.55Zm20.68,5.82,6.25-3.61c.26-.15.29-.39.05-.52l-6-3.46a1,1,0,0,0-.91,0l-6.25,3.61c-.27.16-.29.39-.05.53l6,3.45A1,1,0,0,0,182.06,368.37Zm9.13-5.27,6.26-3.61c.26-.16.29-.39.05-.53l-6-3.45a1,1,0,0,0-.91,0l-6.25,3.61c-.27.15-.29.39-.06.52l6,3.46A1,1,0,0,0,191.19,363.1Zm9.14-5.28,6.26-3.61c.26-.15.29-.39,0-.53l-6-3.45a1,1,0,0,0-.91,0l-6.25,3.61c-.27.16-.29.39-.06.53l6,3.45A1,1,0,0,0,200.33,357.82Zm-29.81-.55-6.25,3.61c-.27.15-.29.39-.06.52l6,3.46a1,1,0,0,0,.91,0l6.25-3.61c.26-.16.29-.39,0-.53l-6-3.45A1,1,0,0,0,170.52,357.27Zm9.14-5.28-6.25,3.61c-.27.16-.29.39-.06.53l6,3.45a1,1,0,0,0,.9,0l6.26-3.61c.26-.15.29-.39.05-.52l-6-3.46A1,1,0,0,0,179.66,352Zm36.56-21.1L210,334.5c-.26.15-.29.39-.05.52l6,3.46a1,1,0,0,0,.91,0l6.25-3.6c.27-.16.29-.39.06-.53l-6-3.45A1,1,0,0,0,216.22,330.89Zm-9.14,5.27-6.26,3.61c-.26.16-.29.39,0,.53l6,3.45a1,1,0,0,0,.91,0l6.25-3.61c.27-.15.29-.39.06-.52l-6-3.46A1,1,0,0,0,207.08,336.16Zm18.27-10.55-6.25,3.61c-.26.16-.29.39,0,.53l6,3.45a1,1,0,0,0,.91,0l6.25-3.61c.27-.15.29-.39.05-.53l-6-3.45A1,1,0,0,0,225.35,325.61ZM188.8,346.72l-6.25,3.61c-.27.15-.29.39-.06.52l6,3.45a1,1,0,0,0,.91,0l6.26-3.61c.26-.15.29-.38.05-.52l-6-3.45A1,1,0,0,0,188.8,346.72Zm9.14-5.28-6.26,3.61c-.26.15-.29.39-.05.53l6,3.45a1,1,0,0,0,.91,0l6.25-3.61c.27-.16.29-.39.06-.53l-6-3.45A1,1,0,0,0,197.94,341.44ZM186.27,375.8l6.26-3.61c.26-.15.29-.38.05-.52l-6-3.45a1,1,0,0,0-.91,0l-6.25,3.61c-.27.15-.29.39-.06.52l6,3.46A1,1,0,0,0,186.27,375.8Zm-48.19-2.27-6-3.45a1,1,0,0,0-.91,0l-6.25,3.61c-.27.15-.29.39,0,.52l6,3.46a1,1,0,0,0,.91,0l6.25-3.6C138.3,373.9,138.32,373.67,138.08,373.53Zm11.92,3-6-3.45a1,1,0,0,0-.9,0l-9.62,5.55c-.27.16-.29.39-.06.53l6,3.45a1,1,0,0,0,.91,0l9.62-5.56C150.21,376.89,150.23,376.66,150,376.52Zm-20.85-9.81-6-3.45a1,1,0,0,0-.91,0l-7.69,4.44c-.27.15-.29.39,0,.52l6,3.46a1,1,0,0,0,.91,0l7.69-4.45C129.37,367.08,129.39,366.85,129.15,366.71Zm5.91-3.41a1,1,0,0,0,.9,0l6.26-3.61c.26-.15.29-.39.05-.52l-6-3.46a1,1,0,0,0-.91,0l-6.25,3.61c-.27.16-.29.39-.06.53ZM161,380.07l-6-3.46a1,1,0,0,0-.9,0l-12,6.95c-.26.15-.29.38-.05.52l6,3.45a1,1,0,0,0,.91,0l12-6.94C161.16,380.44,161.18,380.2,161,380.07Zm4.21,7.43-6-3.45a1,1,0,0,0-.91,0l-7.69,4.44c-.27.15-.29.39-.06.52l6,3.46a1,1,0,0,0,.9,0l7.7-4.45C165.38,387.87,165.4,387.64,165.16,387.5ZM203,324.07a1,1,0,0,0,.91,0l6.25-3.61c.27-.15.29-.38.06-.52l-6-3.46a1,1,0,0,0-.9,0l-6.26,3.61c-.26.15-.29.38,0,.52Zm-18.28,10.56a1,1,0,0,0,.91,0l6.26-3.62c.26-.15.28-.38.05-.52L186,327a1,1,0,0,0-.91,0l-6.25,3.61c-.27.15-.29.39-.06.52ZM144.19,358a1,1,0,0,0,.91,0l6.25-3.61c.27-.16.29-.39.06-.53l-6-3.45a1,1,0,0,0-.91,0l-6.26,3.61c-.26.15-.28.39,0,.52Zm49.67-28.68a1,1,0,0,0,.91,0l6.25-3.61c.27-.15.29-.39.06-.53l-6-3.45a1,1,0,0,0-.91,0l-6.26,3.61c-.26.16-.29.39-.05.53ZM175.59,339.9a1,1,0,0,0,.9,0l6.26-3.61c.26-.15.29-.39.05-.52l-6-3.46a1,1,0,0,0-.91,0l-6.25,3.61c-.27.16-.29.39-.06.53Zm-5.94,48a1,1,0,0,0-.91,0l-9.62,5.55c-.26.16-.29.39-.05.53l6,3.45a1,1,0,0,0,.91,0l9.62-5.55c.27-.16.29-.39,0-.53Zm-7.18-40.4a1,1,0,0,0,.91,0l6.25-3.61c.27-.15.29-.38.06-.52l-6-3.46a1,1,0,0,0-.9,0l-6.26,3.61c-.26.15-.29.38,0,.52Zm-9.14,5.28a1,1,0,0,0,.91,0l6.25-3.61c.27-.15.29-.39.06-.52l-6-3.46a1,1,0,0,0-.9,0l-6.26,3.61c-.26.16-.29.39-.05.53ZM339,290.12a1,1,0,0,0-.91,0L322.66,299c-.27.15-.29.39-.06.52l6,3.46a1,1,0,0,0,.9,0l15.39-8.88c.27-.16.29-.39.06-.53Zm-20.2,11.66a1,1,0,0,0-.91,0l-6.26,3.61c-.26.16-.29.39,0,.53l6,3.45a1,1,0,0,0,.91,0l6.25-3.61c.27-.15.29-.39.06-.52ZM195.41,370.53l6.25-3.61c.27-.15.29-.39.06-.53l-6-3.45a1,1,0,0,0-.91,0l-6.25,3.61c-.27.15-.29.39-.06.53l6,3.45A1,1,0,0,0,195.41,370.53Zm105.07-58.19a1,1,0,0,0-.91,0L293.32,316c-.27.15-.29.38-.06.52l6,3.45a1,1,0,0,0,.9,0l6.26-3.61c.26-.15.29-.38,0-.52Zm47.62-27.5a1,1,0,0,0-.91,0l-6.26,3.61c-.26.16-.29.39-.05.53l6,3.45a1,1,0,0,0,.91,0l6.25-3.61c.27-.15.29-.39.06-.52ZM363.22,283l-14.53-8.39a1,1,0,0,0-.91,0l-6.25,3.61c-.27.16-.29.39-.06.53L356,287.19a1,1,0,0,0,.91,0l6.25-3.61C363.43,283.39,363.45,283.16,363.22,283Zm-96.89,49a1,1,0,0,0-.91,0l-7.7,4.45c-.26.15-.29.38-.05.52l6,3.45a1,1,0,0,0,.91,0l7.7-4.44c.26-.15.29-.39.05-.52Zm23.09-13.33a1,1,0,0,0-.91,0l-9.62,5.56c-.27.15-.29.39-.06.52l6,3.46a1,1,0,0,0,.9,0l9.62-5.55c.27-.15.29-.39.06-.52Zm-44.25,25.55a1,1,0,0,0-.91,0L192.79,374c-.26.16-.29.39,0,.53l6,3.45a1,1,0,0,0,.91,0l51.46-29.71c.27-.16.29-.39.06-.53Zm-54.36,31.38a1,1,0,0,0-.9,0l-7.7,4.44c-.27.16-.29.39-.05.53l6,3.45a1,1,0,0,0,.91,0l7.69-4.44c.27-.16.29-.39.06-.53Zm64.94-37.49a1,1,0,0,0-.91,0l-7.7,4.44c-.26.16-.29.39,0,.53l6,3.45a1,1,0,0,0,.91,0l7.7-4.44c.26-.15.28-.39.05-.53Zm-75.52,43.6a1,1,0,0,0-.91,0l-7.69,4.44c-.27.16-.29.39,0,.53l6,3.45a1,1,0,0,0,.91,0l7.69-4.44c.27-.16.29-.39.05-.53Zm96.68-55.82a1,1,0,0,0-.91,0l-7.69,4.45c-.27.15-.29.38-.06.52l6,3.45a1,1,0,0,0,.91,0l7.7-4.44c.26-.15.29-.39.05-.52Zm32.71-18.88a1,1,0,0,0-.91,0l-6.25,3.61c-.27.15-.29.39-.06.52l6,3.46a1,1,0,0,0,.91,0l6.25-3.61c.27-.16.29-.39.06-.53Zm20.47-14.29,6.25-3.61c.26-.15.29-.38.05-.52l-6-3.45a1,1,0,0,0-.91,0l-6.25,3.61c-.27.15-.29.39-.05.52l6,3.45A1,1,0,0,0,330.09,292.77Zm-37.3,1.8,6.26-3.61c.26-.15.29-.39.05-.53l-6-3.45a1,1,0,0,0-.91,0L286,290.62c-.27.16-.29.39-.06.53l6,3.45A1,1,0,0,0,292.79,294.57Zm-24.27,33.75,18.28-10.55c.26-.16.29-.39.05-.53l-6-3.45a1,1,0,0,0-.91,0l-18.28,10.55c-.26.16-.29.39-.05.53l6,3.45A1,1,0,0,0,268.52,328.32ZM320,298.08a1,1,0,0,0,.91,0l6.25-3.61c.27-.15.29-.39.05-.52l-6-3.46a1,1,0,0,0-.91,0l-6.25,3.61c-.26.16-.29.39-.05.53Zm-7.64-5,6.26-3.61c.26-.16.28-.39,0-.53l-6-3.45a1,1,0,0,0-.91,0l-6.25,3.61c-.27.15-.29.39-.06.52l6,3.46A1,1,0,0,0,312.4,293.12Zm-53,40.48,6.25-3.62c.27-.15.29-.38.06-.52l-6-3.45a1,1,0,0,0-.91,0l-6.25,3.61c-.27.15-.29.39-.06.52l6,3.46A1,1,0,0,0,259.38,333.6Zm40.46-23.86a1,1,0,0,0,.91,0L307,306.1c.26-.15.29-.38.05-.52l-6-3.45a1,1,0,0,0-.91,0l-6.25,3.61c-.27.15-.29.38-.05.52ZM213.69,360l6.25-3.61c.27-.16.29-.39.06-.53l-6-3.45a1,1,0,0,0-.9,0L206.85,356c-.26.15-.29.39,0,.52l6,3.46A1,1,0,0,0,213.69,360Zm9.14-5.28,6.25-3.61c.27-.15.29-.39,0-.52l-6-3.46a1,1,0,0,0-.91,0L216,350.75c-.26.16-.29.39-.05.53l6,3.45A1,1,0,0,0,222.83,354.7Zm-18.28,10.55,6.25-3.61c.27-.15.29-.39.06-.52l-6-3.46a1,1,0,0,0-.9,0l-6.26,3.61c-.26.15-.29.38-.05.52l6,3.45A1,1,0,0,0,204.55,365.25Zm36.55-21.1,6.26-3.61c.26-.16.29-.39,0-.53l-6-3.45a1,1,0,0,0-.91,0l-6.25,3.61c-.27.15-.29.39-.06.52l6,3.46A1,1,0,0,0,241.1,344.15ZM232,349.42l6.25-3.61c.26-.15.29-.38.05-.52l-6-3.45a1,1,0,0,0-.91,0l-6.25,3.61c-.27.15-.29.38,0,.52l6,3.45A1,1,0,0,0,232,349.42Zm18.27-10.55,6.26-3.61c.26-.15.29-.39.05-.52l-6-3.46a1,1,0,0,0-.91,0l-6.25,3.61c-.27.16-.29.39-.06.53l6,3.45A1,1,0,0,0,250.24,338.87Zm49.87-73.4a1,1,0,0,0,.91,0l6.25-3.61c.27-.15.29-.39.06-.52l-1.59-.92a1,1,0,0,0-.91,0L298.57,264c-.26.15-.28.39-.05.52Zm-45.42,28.76a1,1,0,0,0,.91,0l6.25-3.61c.27-.15.29-.39.06-.52l-6-3.46a1,1,0,0,0-.9,0l-6.26,3.61c-.26.16-.29.39,0,.53ZM273,283.68a1,1,0,0,0,.91,0l6.25-3.61c.26-.16.29-.39.05-.53l-6-3.45a1,1,0,0,0-.91,0L267,279.7c-.27.15-.29.39-.05.52Zm-29.44,17a1,1,0,0,0,.91,0l6.25-3.61c.27-.15.29-.39.06-.52l-6-3.46a1,1,0,0,0-.91,0l-6.26,3.61c-.26.15-.29.38,0,.52ZM263.83,289a1,1,0,0,0,.91,0l6.25-3.61c.27-.15.29-.38.05-.52l-6-3.45a1,1,0,0,0-.91,0L257.9,285c-.26.15-.29.38,0,.52Zm-38.58,22.28a1,1,0,0,0,.91,0l6.26-3.6c.26-.16.29-.39.05-.53l-6-3.45a1,1,0,0,0-.91,0l-6.25,3.61c-.27.15-.29.39-.06.52Zm9.14-5.28a1,1,0,0,0,.91,0l6.25-3.61c.27-.15.29-.39.06-.53l-6-3.45a1,1,0,0,0-.91,0L228.47,302c-.27.16-.29.39-.06.53ZM281.84,276a1,1,0,0,0,.9,0l6.26-3.61c.26-.15.29-.38.05-.52l-1.59-.92a1,1,0,0,0-.91,0l-6.25,3.61c-.27.15-.29.39-.06.52Zm27.41-15.82a1,1,0,0,0,.91,0l6.25-3.6c.27-.16.29-.39.06-.53l-1.6-.92a1,1,0,0,0-.9,0l-6.26,3.61c-.26.16-.29.39,0,.53Zm12.57,7.25a1,1,0,0,0,.91,0l6.25-3.61c.27-.15.29-.39,0-.52l-6-3.46a1,1,0,0,0-.91,0l-6.25,3.61c-.27.16-.29.39-.05.53Zm17.4,20.05,6.26-3.61c.26-.16.29-.39,0-.53l-6-3.45a1,1,0,0,0-.91,0l-6.25,3.61c-.27.15-.29.39-.05.52l6,3.46A1,1,0,0,0,339.22,287.5ZM291,270.75a1,1,0,0,0,.91,0l6.26-3.61c.26-.16.29-.39.05-.53l-1.59-.92a1,1,0,0,0-.91,0l-6.25,3.61c-.27.16-.29.39-.06.53ZM216.12,316.5a1,1,0,0,0,.9,0l6.26-3.61c.26-.15.29-.39.05-.52l-6-3.46a1,1,0,0,0-.91,0l-6.25,3.61c-.27.16-.29.39-.06.53Z" style="fill:#455a64"></path><polygon points="243.16 363.63 244.44 364.37 278.5 384.03 339.06 349.07 340.32 348.35 304.98 327.95 243.16 363.63" style="fill:#263238"></polygon><polygon points="244.44 364.37 278.5 384.03 339.06 349.07 304.98 329.41 244.44 364.37" style="fill:#37474f"></polygon></g></g><g id="freepik--window-1--inject-68"><g id="freepik--Window--inject-68"><g id="freepik--window--inject-68"><path d="M310.89,76a1.51,1.51,0,0,0-.06-.37.08.08,0,0,0,0-.08,1.36,1.36,0,0,0-.09-.36,1.75,1.75,0,0,0-.24-.52.67.67,0,0,0-.13-.21.81.81,0,0,0-.12-.14,1.34,1.34,0,0,0-.26-.27l0,0a2.37,2.37,0,0,0-.35-.19,2.89,2.89,0,0,0-2.71.34L103.64,191.14c-2.22,1.29-4,4.43-4,8.93v151a2.73,2.73,0,0,0,1.46,2.42l.17.12.21.12a2.06,2.06,0,0,0,.35.12,2.24,2.24,0,0,0,.52.06,2.53,2.53,0,0,0,1.33-.38l.11-.06h0l3.85-2.22L306.88,236.56a9,9,0,0,0,4-7v-153A4.07,4.07,0,0,0,310.89,76Z" style="fill:#455a64;opacity:0.9"></path><path d="M309.59,73.87a2.89,2.89,0,0,0-2.71.34L103.64,191.14a9,9,0,0,0-4,7V206l-5.15-3v-7.74a8.9,8.9,0,0,1,4-7L301.72,71.29a2.82,2.82,0,0,1,2.93-.23C305.38,71.49,308.73,73.42,309.59,73.87Z" style="fill:#90D7CB"></path><path d="M310.91,76.52c0-2.55-1.81-3.59-4-2.3L103.64,191.15a8.93,8.93,0,0,0-4,7V206L310.91,84.4Z" style="fill:#90D7CB"></path><g style="opacity:0.6000000000000001"><path d="M306.87,74.21,103.65,191.15a8.29,8.29,0,0,0-2.85,3l-5.13-3a8.24,8.24,0,0,1,2.81-2.95L301.72,71.29a2.85,2.85,0,0,1,2.93-.24c.73.45,4.08,2.35,4.93,2.81A3,3,0,0,0,306.87,74.21Z" style="fill:#fff"></path></g><path d="M94.44,203v-7.76a8.31,8.31,0,0,1,1.23-4l5.14,3a8.16,8.16,0,0,0-1.2,4V206Z" style="opacity:0.15"></path><path d="M295,84.81a4,4,0,0,0-1.54,3.25c0,1.3.69,2,1.54,1.47a4.06,4.06,0,0,0,1.53-3.24C296.53,85,295.84,84.32,295,84.81Z" style="fill:#455a64"></path><path d="M300.52,81.61A4,4,0,0,0,299,84.86c0,1.31.68,2,1.53,1.48a4,4,0,0,0,1.53-3.25C302.05,81.79,301.37,81.13,300.52,81.61Z" style="fill:#455a64"></path><path d="M306,78.42a4.06,4.06,0,0,0-1.53,3.25c0,1.3.69,2,1.53,1.47a4,4,0,0,0,1.54-3.24C307.58,78.59,306.89,77.93,306,78.42Z" style="fill:#455a64"></path><path d="M101.05,353.54l-.21-.12L96.59,351a4.29,4.29,0,0,1-2.11-3.13,3.9,3.9,0,0,1,0-.59V203l5.16,3V351.09a2.64,2.64,0,0,0,1.26,2.29.51.51,0,0,0,.13.09s0,0,0,0Z" style="fill:#263238;opacity:0.9"></path></g><g id="freepik--code--inject-68" style="opacity:0.5"><path d="M125.44,200l39.94-23.06c.56-.32,1-.09,1,.51a2.15,2.15,0,0,1-1,1.68l-39.94,23.06c-.56.32-1,.09-1-.51A2.15,2.15,0,0,1,125.44,200Z" style="fill:#90D7CB"></path><path d="M125.4,226.47l117.54-67.76c.56-.32,1-.09,1,.51a2.15,2.15,0,0,1-1,1.68L125.4,228.66c-.55.32-1,.1-1-.51A2.2,2.2,0,0,1,125.4,226.47Z" style="fill:#90D7CB"></path><path d="M169.3,174.67l74.26-42.73c.56-.32,1-.09,1,.51a2.15,2.15,0,0,1-1,1.68L169.3,176.86c-.56.32-1,.09-1-.51A2.15,2.15,0,0,1,169.3,174.67Z" style="fill:#90D7CB"></path><path d="M125.44,206.28l20.22-11.68c.56-.33,1-.1,1,.51a2.17,2.17,0,0,1-1,1.68l-20.22,11.69c-.56.32-1,.09-1-.52A2.18,2.18,0,0,1,125.44,206.28Z" style="fill:#90D7CB"></path><path d="M125.44,206.28l20.22-11.68c.56-.33,1-.1,1,.51a2.17,2.17,0,0,1-1,1.68l-20.22,11.69c-.56.32-1,.09-1-.52A2.18,2.18,0,0,1,125.44,206.28Z" style="fill:#fff;opacity:0.6000000000000001"></path><path d="M125.44,212.54l12.15-7c.56-.32,1-.09,1,.51a2.15,2.15,0,0,1-1,1.68l-12.15,7c-.56.32-1,.1-1-.51A2.17,2.17,0,0,1,125.44,212.54Z" style="fill:#90D7CB"></path><path d="M125.44,212.54l12.15-7c.56-.32,1-.09,1,.51a2.15,2.15,0,0,1-1,1.68l-12.15,7c-.56.32-1,.1-1-.51A2.17,2.17,0,0,1,125.44,212.54Z" style="fill:#fff;opacity:0.6000000000000001"></path><path d="M149.58,192.33l70.36-40.53c.56-.32,1-.09,1,.52a2.18,2.18,0,0,1-1,1.68l-70.36,40.52c-.56.33-1,.1-1-.51A2.18,2.18,0,0,1,149.58,192.33Z" style="fill:#90D7CB"></path><path d="M149.58,192.33l70.36-40.53c.56-.32,1-.09,1,.52a2.18,2.18,0,0,1-1,1.68l-70.36,40.52c-.56.33-1,.1-1-.51A2.18,2.18,0,0,1,149.58,192.33Z" style="fill:#fff;opacity:0.6000000000000001"></path><path d="M136,243.05l107.59-62.16c.56-.33,1-.1,1,.51a2.18,2.18,0,0,1-1,1.68L136,245.24c-.55.32-1,.09-1-.51A2.18,2.18,0,0,1,136,243.05Z" style="fill:#ffc7a7"></path><path d="M136,236.79,243.56,174.6c.56-.32,1-.09,1,.51a2.15,2.15,0,0,1-1,1.68L136,239c-.55.32-1,.09-1-.52A2.21,2.21,0,0,1,136,236.79Z" style="fill:#ffc7a7"></path><path d="M140.83,203.7l20-11.61c.56-.32,1-.09,1,.51a2.15,2.15,0,0,1-1,1.68l-20,11.61c-.56.32-1,.09-1-.51A2.15,2.15,0,0,1,140.83,203.7Z" style="fill:#90D7CB"></path><path d="M140.83,203.7l20-11.61c.56-.32,1-.09,1,.51a2.15,2.15,0,0,1-1,1.68l-20,11.61c-.56.32-1,.09-1-.51A2.15,2.15,0,0,1,140.83,203.7Z" style="fill:#fff;opacity:0.6000000000000001"></path><path d="M164.76,189.83,243,145c.56-.32,1-.09,1,.51a2.15,2.15,0,0,1-1,1.68L164.76,192c-.56.32-1,.09-1-.51A2.15,2.15,0,0,1,164.76,189.83Z" style="fill:#90D7CB"></path><path d="M164.76,189.83,243,145c.56-.32,1-.09,1,.51a2.15,2.15,0,0,1-1,1.68L164.76,192c-.56.32-1,.09-1-.51A2.15,2.15,0,0,1,164.76,189.83Z" style="fill:#fff;opacity:0.6000000000000001"></path><path d="M125.4,219.15l35.44-20.34c.56-.32,1-.1,1,.51a2.17,2.17,0,0,1-1,1.68L125.4,221.34c-.55.32-1,.09-1-.51A2.18,2.18,0,0,1,125.4,219.15Z" style="fill:#90D7CB"></path><path d="M125.4,219.15l35.44-20.34c.56-.32,1-.1,1,.51a2.17,2.17,0,0,1-1,1.68L125.4,221.34c-.55.32-1,.09-1-.51A2.18,2.18,0,0,1,125.4,219.15Z" style="fill:#fff;opacity:0.6000000000000001"></path><path d="M164.76,196.54,243,151.75c.56-.32,1-.09,1,.51a2.15,2.15,0,0,1-1,1.68l-78.2,44.79c-.56.33-1,.1-1-.51A2.18,2.18,0,0,1,164.76,196.54Z" style="fill:#90D7CB"></path><path d="M164.76,196.54,243,151.75c.56-.32,1-.09,1,.51a2.15,2.15,0,0,1-1,1.68l-78.2,44.79c-.56.33-1,.1-1-.51A2.18,2.18,0,0,1,164.76,196.54Z" style="fill:#fff;opacity:0.6000000000000001"></path><path d="M136,249.38l107.59-62c.56-.32,1-.09,1,.52a2.15,2.15,0,0,1-1,1.67L136,251.57c-.55.33-1,.1-1-.51A2.21,2.21,0,0,1,136,249.38Z" style="fill:#f29b8f"></path><path d="M136,255.65l107.59-62c.56-.32,1-.09,1,.52a2.18,2.18,0,0,1-1,1.68L136,257.84c-.55.33-1,.1-1-.51A2.21,2.21,0,0,1,136,255.65Z" style="fill:#f29b8f"></path><path d="M136,261.92l107.59-62c.56-.32,1-.09,1,.52a2.18,2.18,0,0,1-1,1.68L136,264.11c-.55.33-1,.1-1-.51A2.21,2.21,0,0,1,136,261.92Z" style="fill:#f29b8f"></path><path d="M136,270.25l107.59-62c.56-.32,1-.09,1,.51a2.15,2.15,0,0,1-1,1.68L136,272.44c-.55.32-1,.09-1-.51A2.18,2.18,0,0,1,136,270.25Z" style="fill:#90D7CB"></path><path d="M125.65,276.12l4.68-2.68c.56-.33,1-.1,1,.51a2.2,2.2,0,0,1-1,1.68l-4.68,2.69c-.55.32-1,.09-1-.52A2.21,2.21,0,0,1,125.65,276.12Z" style="fill:#90D7CB"></path><path d="M125.65,276.12l4.68-2.68c.56-.33,1-.1,1,.51a2.2,2.2,0,0,1-1,1.68l-4.68,2.69c-.55.32-1,.09-1-.52A2.21,2.21,0,0,1,125.65,276.12Z" style="fill:#fff;opacity:0.6000000000000001"></path><path d="M125.65,281.79l4.68-2.69c.56-.32,1-.09,1,.52a2.2,2.2,0,0,1-1,1.68L125.65,284c-.55.33-1,.1-1-.51A2.21,2.21,0,0,1,125.65,281.79Z" style="fill:#90D7CB"></path><path d="M125.65,281.79l4.68-2.69c.56-.32,1-.09,1,.52a2.2,2.2,0,0,1-1,1.68L125.65,284c-.55.33-1,.1-1-.51A2.21,2.21,0,0,1,125.65,281.79Z" style="fill:#fff;opacity:0.6000000000000001"></path><path d="M136,276l107.59-62.2c.56-.32,1-.09,1,.51a2.15,2.15,0,0,1-1,1.68L136,278.15c-.55.32-1,.09-1-.51A2.18,2.18,0,0,1,136,276Z" style="fill:#ffc7a7"></path><path d="M136.48,316.65,165.38,300c.56-.33,1-.1,1,.51a2.17,2.17,0,0,1-1,1.68l-28.9,16.67c-.56.33-1,.1-1-.51A2.17,2.17,0,0,1,136.48,316.65Z" style="fill:#90D7CB"></path><path d="M169.3,297.64,243.56,255c.56-.32,1-.1,1,.51a2.17,2.17,0,0,1-1,1.68L169.3,299.83c-.56.32-1,.09-1-.51A2.15,2.15,0,0,1,169.3,297.64Z" style="fill:#90D7CB"></path><path d="M125.65,322.84l4.68-2.69c.56-.32,1-.09,1,.51a2.16,2.16,0,0,1-1,1.68L125.65,325c-.55.32-1,.1-1-.51A2.18,2.18,0,0,1,125.65,322.84Z" style="fill:#90D7CB"></path><path d="M125.65,322.84l4.68-2.69c.56-.32,1-.09,1,.51a2.16,2.16,0,0,1-1,1.68L125.65,325c-.55.32-1,.1-1-.51A2.18,2.18,0,0,1,125.65,322.84Z" style="fill:#fff;opacity:0.6000000000000001"></path><path d="M125.65,328.51l4.68-2.69c.56-.32,1-.09,1,.51a2.16,2.16,0,0,1-1,1.68l-4.68,2.69c-.55.32-1,.09-1-.51A2.18,2.18,0,0,1,125.65,328.51Z" style="fill:#90D7CB"></path><path d="M125.65,328.51l4.68-2.69c.56-.32,1-.09,1,.51a2.16,2.16,0,0,1-1,1.68l-4.68,2.69c-.55.32-1,.09-1-.51A2.18,2.18,0,0,1,125.65,328.51Z" style="fill:#fff;opacity:0.6000000000000001"></path><path d="M136.44,322.07l106.68-61.55c.56-.33,1-.1,1,.51a2.18,2.18,0,0,1-1,1.68L136.44,324.27c-.56.32-1,.09-1-.52A2.18,2.18,0,0,1,136.44,322.07Z" style="fill:#ffc7a7"></path><path d="M136.15,289.29l107.41-61.84c.56-.32,1-.09,1,.51a2.15,2.15,0,0,1-1,1.68L136.15,291.49c-.56.32-1,.09-1-.52A2.18,2.18,0,0,1,136.15,289.29Z" style="fill:#90D7CB"></path><path d="M125.65,295.28l4.68-2.69c.56-.33,1-.1,1,.51a2.18,2.18,0,0,1-1,1.68l-4.68,2.69c-.55.32-1,.09-1-.51A2.18,2.18,0,0,1,125.65,295.28Z" style="fill:#90D7CB"></path><path d="M125.65,295.28l4.68-2.69c.56-.33,1-.1,1,.51a2.18,2.18,0,0,1-1,1.68l-4.68,2.69c-.55.32-1,.09-1-.51A2.18,2.18,0,0,1,125.65,295.28Z" style="fill:#fff;opacity:0.6000000000000001"></path><path d="M136.15,295.49l107.41-61.85c.56-.32,1-.09,1,.51a2.15,2.15,0,0,1-1,1.68L136.15,297.68c-.56.32-1,.09-1-.51A2.15,2.15,0,0,1,136.15,295.49Z" style="fill:#90D7CB"></path><path d="M125.65,301.55l4.68-2.69c.56-.33,1-.1,1,.51a2.18,2.18,0,0,1-1,1.68l-4.68,2.69c-.55.32-1,.09-1-.51A2.18,2.18,0,0,1,125.65,301.55Z" style="fill:#90D7CB"></path><path d="M125.65,301.55l4.68-2.69c.56-.33,1-.1,1,.51a2.18,2.18,0,0,1-1,1.68l-4.68,2.69c-.55.32-1,.09-1-.51A2.18,2.18,0,0,1,125.65,301.55Z" style="fill:#fff;opacity:0.6000000000000001"></path><path d="M136.15,301.78l107.41-61.84c.56-.32,1-.09,1,.51a2.15,2.15,0,0,1-1,1.68L136.15,304c-.56.32-1,.09-1-.52A2.18,2.18,0,0,1,136.15,301.78Z" style="fill:#f29b8f"></path><path d="M125.65,307.82l4.68-2.69c.56-.32,1-.1,1,.51a2.18,2.18,0,0,1-1,1.68L125.65,310c-.55.32-1,.09-1-.51A2.18,2.18,0,0,1,125.65,307.82Z" style="fill:#90D7CB"></path><path d="M125.65,307.82l4.68-2.69c.56-.32,1-.1,1,.51a2.18,2.18,0,0,1-1,1.68L125.65,310c-.55.32-1,.09-1-.51A2.18,2.18,0,0,1,125.65,307.82Z" style="fill:#fff;opacity:0.6000000000000001"></path><g style="opacity:0.6000000000000001"><path d="M111.06,289.14l5.5-3.18c.55-.31,1-.06,1,.58v2a2.23,2.23,0,0,1-1,1.74l-5.5,3.17c-.55.32-1,.06-1-.57v-2A2.23,2.23,0,0,1,111.06,289.14Z" style="fill:#fff"></path><path d="M111.06,297.19l5.5-3.18c.55-.31,1-.06,1,.58v2a2.23,2.23,0,0,1-1,1.74l-5.5,3.17c-.55.32-1,.06-1-.58v-2A2.21,2.21,0,0,1,111.06,297.19Z" style="fill:#fff"></path><path d="M111.06,305.24l5.5-3.18c.55-.32,1-.06,1,.58v2a2.2,2.2,0,0,1-1,1.73l-5.5,3.18c-.55.32-1,.06-1-.58v-2A2.21,2.21,0,0,1,111.06,305.24Z" style="fill:#fff"></path><path d="M111.06,313.29l5.5-3.18c.55-.32,1-.06,1,.58v2a2.2,2.2,0,0,1-1,1.73l-5.5,3.18c-.55.32-1,.06-1-.58v-2A2.21,2.21,0,0,1,111.06,313.29Z" style="fill:#fff"></path></g><path d="M125.65,241.87l4.68-2.69c.56-.33,1-.1,1,.51a2.2,2.2,0,0,1-1,1.68l-4.68,2.69c-.55.32-1,.09-1-.51A2.18,2.18,0,0,1,125.65,241.87Z" style="fill:#90D7CB"></path><path d="M125.65,241.87l4.68-2.69c.56-.33,1-.1,1,.51a2.2,2.2,0,0,1-1,1.68l-4.68,2.69c-.55.32-1,.09-1-.51A2.18,2.18,0,0,1,125.65,241.87Z" style="fill:#fff;opacity:0.6000000000000001"></path><path d="M125.65,255.35l4.68-2.69c.56-.32,1-.09,1,.51a2.16,2.16,0,0,1-1,1.68l-4.68,2.69c-.55.32-1,.09-1-.51A2.18,2.18,0,0,1,125.65,255.35Z" style="fill:#90D7CB"></path><path d="M125.65,255.35l4.68-2.69c.56-.32,1-.09,1,.51a2.16,2.16,0,0,1-1,1.68l-4.68,2.69c-.55.32-1,.09-1-.51A2.18,2.18,0,0,1,125.65,255.35Z" style="fill:#fff;opacity:0.6000000000000001"></path><path d="M125.65,261.62l4.68-2.69c.56-.32,1-.09,1,.51a2.16,2.16,0,0,1-1,1.68l-4.68,2.69c-.55.32-1,.09-1-.51A2.18,2.18,0,0,1,125.65,261.62Z" style="fill:#90D7CB"></path><path d="M125.65,261.62l4.68-2.69c.56-.32,1-.09,1,.51a2.16,2.16,0,0,1-1,1.68l-4.68,2.69c-.55.32-1,.09-1-.51A2.18,2.18,0,0,1,125.65,261.62Z" style="fill:#fff;opacity:0.6000000000000001"></path><path d="M125.65,267.89l4.68-2.69c.56-.32,1-.09,1,.51a2.16,2.16,0,0,1-1,1.68l-4.68,2.69c-.55.32-1,.09-1-.51A2.18,2.18,0,0,1,125.65,267.89Z" style="fill:#90D7CB"></path><path d="M125.65,267.89l4.68-2.69c.56-.32,1-.09,1,.51a2.16,2.16,0,0,1-1,1.68l-4.68,2.69c-.55.32-1,.09-1-.51A2.18,2.18,0,0,1,125.65,267.89Z" style="fill:#fff;opacity:0.6000000000000001"></path><g style="opacity:0.6000000000000001"><path d="M111.06,249.21l5.5-3.17c.55-.32,1-.06,1,.57v2a2.23,2.23,0,0,1-1,1.73l-5.5,3.17c-.55.32-1,.06-1-.57v-2A2.23,2.23,0,0,1,111.06,249.21Z" style="fill:#fff"></path><path d="M111.06,257.26l5.5-3.17c.55-.32,1-.06,1,.57v2a2.23,2.23,0,0,1-1,1.73l-5.5,3.17c-.55.32-1,.06-1-.57v-2A2.23,2.23,0,0,1,111.06,257.26Z" style="fill:#fff"></path><path d="M111.06,265.31l5.5-3.17c.55-.32,1-.07,1,.57v2a2.23,2.23,0,0,1-1,1.73l-5.5,3.17c-.55.32-1,.06-1-.57v-2A2.23,2.23,0,0,1,111.06,265.31Z" style="fill:#fff"></path><path d="M111.06,273.36l5.5-3.18c.55-.31,1-.06,1,.58v2a2.23,2.23,0,0,1-1,1.74l-5.5,3.17c-.55.32-1,.06-1-.58v-2A2.23,2.23,0,0,1,111.06,273.36Z" style="fill:#fff"></path><path d="M111.06,329.07l5.5-3.18c.55-.32,1-.06,1,.58v2a2.2,2.2,0,0,1-1,1.73l-5.5,3.18c-.55.32-1,.06-1-.58v-2A2.21,2.21,0,0,1,111.06,329.07Z" style="fill:#fff"></path><path d="M111.06,337.12l5.5-3.18c.55-.32,1-.06,1,.58v2a2.21,2.21,0,0,1-1,1.73l-5.5,3.18c-.55.32-1,.06-1-.58v-2A2.21,2.21,0,0,1,111.06,337.12Z" style="fill:#fff"></path></g><g style="opacity:0.6000000000000001"><path d="M111.06,209.29l5.5-3.18c.55-.32,1-.06,1,.58v2a2.21,2.21,0,0,1-1,1.73l-5.5,3.18c-.55.31-1,.06-1-.58v-2A2.2,2.2,0,0,1,111.06,209.29Z" style="fill:#fff"></path><path d="M111.06,217.33l5.5-3.17c.55-.32,1-.06,1,.57v2a2.23,2.23,0,0,1-1,1.73l-5.5,3.18c-.55.31-1,.06-1-.58v-2A2.23,2.23,0,0,1,111.06,217.33Z" style="fill:#fff"></path><path d="M111.06,225.38l5.5-3.17c.55-.32,1-.06,1,.57v2a2.23,2.23,0,0,1-1,1.73l-5.5,3.17c-.55.32-1,.06-1-.57v-2A2.23,2.23,0,0,1,111.06,225.38Z" style="fill:#fff"></path><path d="M111.06,233.43l5.5-3.17c.55-.32,1-.06,1,.57v2a2.23,2.23,0,0,1-1,1.73l-5.5,3.17c-.55.32-1,.06-1-.57v-2A2.23,2.23,0,0,1,111.06,233.43Z" style="fill:#fff"></path></g><path d="M298.93,160.24l-42.21,24.37a6.28,6.28,0,0,0-2.84,4.92V253.1c0,1.81,1.27,2.54,2.84,1.64l42.21-24.37a6.3,6.3,0,0,0,2.83-4.91V161.88C301.76,160.07,300.49,159.34,298.93,160.24Z" style="fill:#37474f"></path><path d="M295,208.56l-3.89,2.25a3.06,3.06,0,0,0-1.43,2.38c0,.86.64,1.18,1.43.72l3.89-2.24a3.09,3.09,0,0,0,1.43-2.39C296.44,208.43,295.8,208.1,295,208.56Z" style="fill:#90D7CB"></path><path d="M295,208.56l-3.89,2.25a3.06,3.06,0,0,0-1.43,2.38c0,.86.64,1.18,1.43.72l3.89-2.24a3.09,3.09,0,0,0,1.43-2.39C296.44,208.43,295.8,208.1,295,208.56Z" style="fill:#fff;opacity:0.6000000000000001"></path><path d="M295,168.64l-3.89,2.25a3.07,3.07,0,0,0-1.43,2.38c0,.86.64,1.19,1.43.73l3.89-2.25a3.07,3.07,0,0,0,1.43-2.38C296.44,168.51,295.8,168.19,295,168.64Z" style="fill:#90D7CB"></path><path d="M295,168.64l-3.89,2.25a3.07,3.07,0,0,0-1.43,2.38c0,.86.64,1.19,1.43.73l3.89-2.25a3.07,3.07,0,0,0,1.43-2.38C296.44,168.51,295.8,168.19,295,168.64Z" style="fill:#fff;opacity:0.6000000000000001"></path><path d="M289.55,179.76,285.66,182a3.07,3.07,0,0,0-1.43,2.38c0,.86.64,1.18,1.43.73l3.89-2.25a3.07,3.07,0,0,0,1.43-2.38C291,179.63,290.34,179.3,289.55,179.76Z" style="fill:#90D7CB"></path><path d="M289.55,179.76,285.66,182a3.07,3.07,0,0,0-1.43,2.38c0,.86.64,1.18,1.43.73l3.89-2.25a3.07,3.07,0,0,0,1.43-2.38C291,179.63,290.34,179.3,289.55,179.76Z" style="fill:#fff;opacity:0.6000000000000001"></path><path d="M289.55,187.72,285.66,190a3.09,3.09,0,0,0-1.43,2.38c0,.86.64,1.19,1.43.73l3.89-2.25a3.06,3.06,0,0,0,1.43-2.38C291,187.59,290.34,187.27,289.55,187.72Z" style="fill:#90D7CB"></path><path d="M289.55,187.72,285.66,190a3.09,3.09,0,0,0-1.43,2.38c0,.86.64,1.19,1.43.73l3.89-2.25a3.06,3.06,0,0,0,1.43-2.38C291,187.59,290.34,187.27,289.55,187.72Z" style="fill:#fff;opacity:0.6000000000000001"></path><path d="M295,192.59l-3.89,2.24a3.09,3.09,0,0,0-1.43,2.39c0,.85.64,1.18,1.43.72l3.89-2.25a3.06,3.06,0,0,0,1.43-2.38C296.44,192.45,295.8,192.13,295,192.59Z" style="fill:#90D7CB"></path><path d="M295,192.59l-3.89,2.24a3.09,3.09,0,0,0-1.43,2.39c0,.85.64,1.18,1.43.72l3.89-2.25a3.06,3.06,0,0,0,1.43-2.38C296.44,192.45,295.8,192.13,295,192.59Z" style="fill:#fff;opacity:0.6000000000000001"></path><path d="M289.55,203.71,285.66,206a3.07,3.07,0,0,0-1.43,2.38c0,.86.64,1.19,1.43.73l3.89-2.25a3.07,3.07,0,0,0,1.43-2.38C291,203.58,290.34,203.26,289.55,203.71Z" style="fill:#90D7CB"></path><path d="M289.55,203.71,285.66,206a3.07,3.07,0,0,0-1.43,2.38c0,.86.64,1.19,1.43.73l3.89-2.25a3.07,3.07,0,0,0,1.43-2.38C291,203.58,290.34,203.26,289.55,203.71Z" style="fill:#fff;opacity:0.6000000000000001"></path><path d="M284.37,174.79l-23.73,13.7a3.08,3.08,0,0,0-1.44,2.39c0,.85.64,1.18,1.44.72l23.73-13.7a3.09,3.09,0,0,0,1.43-2.38C285.8,174.66,285.16,174.33,284.37,174.79Z" style="fill:#90D7CB"></path><path d="M284.37,174.79l-23.73,13.7a3.08,3.08,0,0,0-1.44,2.39c0,.85.64,1.18,1.44.72l23.73-13.7a3.09,3.09,0,0,0,1.43-2.38C285.8,174.66,285.16,174.33,284.37,174.79Z" style="fill:#fff;opacity:0.8"></path><path d="M284.37,214.71l-23.73,13.7a3.06,3.06,0,0,0-1.44,2.38c0,.86.64,1.18,1.44.73l23.73-13.71a3.06,3.06,0,0,0,1.43-2.38C285.8,214.57,285.16,214.25,284.37,214.71Z" style="fill:#90D7CB"></path><path d="M284.37,214.71l-23.73,13.7a3.06,3.06,0,0,0-1.44,2.38c0,.86.64,1.18,1.44.73l23.73-13.71a3.06,3.06,0,0,0,1.43-2.38C285.8,214.57,285.16,214.25,284.37,214.71Z" style="fill:#fff;opacity:0.8"></path><path d="M278.91,185.91l-18.27,10.57a3,3,0,0,0-1.44,2.38c0,.86.64,1.18,1.44.72L278.91,189a3.09,3.09,0,0,0,1.43-2.39C280.34,185.77,279.7,185.45,278.91,185.91Z" style="fill:#90D7CB"></path><path d="M278.91,185.91l-18.27,10.57a3,3,0,0,0-1.44,2.38c0,.86.64,1.18,1.44.72L278.91,189a3.09,3.09,0,0,0,1.43-2.39C280.34,185.77,279.7,185.45,278.91,185.91Z" style="fill:#fff;opacity:0.8"></path><path d="M278.91,193.89l-18.27,10.57a3.06,3.06,0,0,0-1.44,2.38c0,.86.64,1.18,1.44.73L278.91,197a3.09,3.09,0,0,0,1.43-2.38C280.34,193.76,279.7,193.43,278.91,193.89Z" style="fill:#90D7CB"></path><path d="M278.91,193.89l-18.27,10.57a3.06,3.06,0,0,0-1.44,2.38c0,.86.64,1.18,1.44.73L278.91,197a3.09,3.09,0,0,0,1.43-2.38C280.34,193.76,279.7,193.43,278.91,193.89Z" style="fill:#fff;opacity:0.8"></path><path d="M284.37,198.74l-23.73,13.7a3.08,3.08,0,0,0-1.44,2.38c0,.86.64,1.19,1.44.73l23.73-13.7a3.09,3.09,0,0,0,1.43-2.38C285.8,198.61,285.16,198.28,284.37,198.74Z" style="fill:#90D7CB"></path><path d="M284.37,198.74l-23.73,13.7a3.08,3.08,0,0,0-1.44,2.38c0,.86.64,1.19,1.44.73l23.73-13.7a3.09,3.09,0,0,0,1.43-2.38C285.8,198.61,285.16,198.28,284.37,198.74Z" style="fill:#fff;opacity:0.8"></path><path d="M278.91,209.86l-18.27,10.57a3,3,0,0,0-1.44,2.38c0,.86.64,1.18,1.44.72L278.91,213a3.09,3.09,0,0,0,1.43-2.38C280.34,209.73,279.7,209.4,278.91,209.86Z" style="fill:#90D7CB"></path><path d="M278.91,209.86l-18.27,10.57a3,3,0,0,0-1.44,2.38c0,.86.64,1.18,1.44.72L278.91,213a3.09,3.09,0,0,0,1.43-2.38C280.34,209.73,279.7,209.4,278.91,209.86Z" style="fill:#fff;opacity:0.8"></path><path d="M295,224.61l-3.89,2.25a3.07,3.07,0,0,0-1.43,2.38c0,.86.64,1.19,1.43.73l3.89-2.25a3.07,3.07,0,0,0,1.43-2.38C296.44,224.48,295.8,224.15,295,224.61Z" style="fill:#90D7CB"></path><path d="M295,224.61l-3.89,2.25a3.07,3.07,0,0,0-1.43,2.38c0,.86.64,1.19,1.43.73l3.89-2.25a3.07,3.07,0,0,0,1.43-2.38C296.44,224.48,295.8,224.15,295,224.61Z" style="fill:#fff;opacity:0.6000000000000001"></path><path d="M289.55,219.77,285.66,222a3.09,3.09,0,0,0-1.43,2.39c0,.85.64,1.18,1.43.72l3.89-2.25a3.06,3.06,0,0,0,1.43-2.38C291,219.63,290.34,219.31,289.55,219.77Z" style="fill:#90D7CB"></path><path d="M289.55,219.77,285.66,222a3.09,3.09,0,0,0-1.43,2.39c0,.85.64,1.18,1.43.72l3.89-2.25a3.06,3.06,0,0,0,1.43-2.38C291,219.63,290.34,219.31,289.55,219.77Z" style="fill:#fff;opacity:0.6000000000000001"></path><path d="M284.37,230.76l-23.73,13.7a3.08,3.08,0,0,0-1.44,2.38c0,.86.64,1.19,1.44.73l23.73-13.7a3.09,3.09,0,0,0,1.43-2.39C285.8,230.63,285.16,230.3,284.37,230.76Z" style="fill:#90D7CB"></path><path d="M284.37,230.76l-23.73,13.7a3.08,3.08,0,0,0-1.44,2.38c0,.86.64,1.19,1.44.73l23.73-13.7a3.09,3.09,0,0,0,1.43-2.39C285.8,230.63,285.16,230.3,284.37,230.76Z" style="fill:#fff;opacity:0.8"></path><path d="M278.91,225.91l-18.27,10.57a3.06,3.06,0,0,0-1.44,2.38c0,.86.64,1.18,1.44.73L278.91,229a3.07,3.07,0,0,0,1.43-2.38C280.34,225.78,279.7,225.46,278.91,225.91Z" style="fill:#90D7CB"></path><path d="M278.91,225.91l-18.27,10.57a3.06,3.06,0,0,0-1.44,2.38c0,.86.64,1.18,1.44.73L278.91,229a3.07,3.07,0,0,0,1.43-2.38C280.34,225.78,279.7,225.46,278.91,225.91Z" style="fill:#fff;opacity:0.8"></path><path d="M298.93,94.85l-42.21,24.37a6.25,6.25,0,0,0-2.84,4.91v48.74c0,1.81,1.27,2.55,2.84,1.64l42.21-24.37a6.27,6.27,0,0,0,2.83-4.91V96.49C301.76,94.68,300.49,94,298.93,94.85Z" style="fill:#37474f"></path><path d="M295,143.17l-3.89,2.24a3.09,3.09,0,0,0-1.43,2.39c0,.85.64,1.18,1.43.72l3.89-2.25a3.06,3.06,0,0,0,1.43-2.38C296.44,143,295.8,142.71,295,143.17Z" style="fill:#90D7CB"></path><path d="M295,143.17l-3.89,2.24a3.09,3.09,0,0,0-1.43,2.39c0,.85.64,1.18,1.43.72l3.89-2.25a3.06,3.06,0,0,0,1.43-2.38C296.44,143,295.8,142.71,295,143.17Z" style="fill:#fff;opacity:0.6000000000000001"></path><path d="M295,103.25l-3.89,2.25a3.06,3.06,0,0,0-1.43,2.38c0,.86.64,1.18,1.43.73l3.89-2.25a3.09,3.09,0,0,0,1.43-2.38C296.44,103.12,295.8,102.79,295,103.25Z" style="fill:#90D7CB"></path><path d="M295,103.25l-3.89,2.25a3.06,3.06,0,0,0-1.43,2.38c0,.86.64,1.18,1.43.73l3.89-2.25a3.09,3.09,0,0,0,1.43-2.38C296.44,103.12,295.8,102.79,295,103.25Z" style="fill:#fff;opacity:0.6000000000000001"></path><path d="M289.55,114.37l-3.89,2.25a3.06,3.06,0,0,0-1.43,2.38c0,.86.64,1.18,1.43.72l3.89-2.24a3.09,3.09,0,0,0,1.43-2.39C291,114.24,290.34,113.91,289.55,114.37Z" style="fill:#90D7CB"></path><path d="M289.55,114.37l-3.89,2.25a3.06,3.06,0,0,0-1.43,2.38c0,.86.64,1.18,1.43.72l3.89-2.24a3.09,3.09,0,0,0,1.43-2.39C291,114.24,290.34,113.91,289.55,114.37Z" style="fill:#fff;opacity:0.6000000000000001"></path><path d="M289.55,122.33l-3.89,2.25a3.07,3.07,0,0,0-1.43,2.38c0,.86.64,1.18,1.43.73l3.89-2.25a3.07,3.07,0,0,0,1.43-2.38C291,122.2,290.34,121.87,289.55,122.33Z" style="fill:#90D7CB"></path><path d="M289.55,122.33l-3.89,2.25a3.07,3.07,0,0,0-1.43,2.38c0,.86.64,1.18,1.43.73l3.89-2.25a3.07,3.07,0,0,0,1.43-2.38C291,122.2,290.34,121.87,289.55,122.33Z" style="fill:#fff;opacity:0.6000000000000001"></path><path d="M295,127.19l-3.89,2.25a3.09,3.09,0,0,0-1.43,2.38c0,.86.64,1.19,1.43.73L295,130.3a3.07,3.07,0,0,0,1.43-2.38C296.44,127.06,295.8,126.74,295,127.19Z" style="fill:#90D7CB"></path><path d="M295,127.19l-3.89,2.25a3.09,3.09,0,0,0-1.43,2.38c0,.86.64,1.19,1.43.73L295,130.3a3.07,3.07,0,0,0,1.43-2.38C296.44,127.06,295.8,126.74,295,127.19Z" style="fill:#fff;opacity:0.6000000000000001"></path><path d="M289.55,138.32l-3.89,2.25a3.06,3.06,0,0,0-1.43,2.38c0,.86.64,1.18,1.43.73l3.89-2.25a3.09,3.09,0,0,0,1.43-2.38C291,138.19,290.34,137.86,289.55,138.32Z" style="fill:#90D7CB"></path><path d="M289.55,138.32l-3.89,2.25a3.06,3.06,0,0,0-1.43,2.38c0,.86.64,1.18,1.43.73l3.89-2.25a3.09,3.09,0,0,0,1.43-2.38C291,138.19,290.34,137.86,289.55,138.32Z" style="fill:#fff;opacity:0.6000000000000001"></path><path d="M284.37,109.4l-23.73,13.7a3.06,3.06,0,0,0-1.44,2.38c0,.86.64,1.19,1.44.73l23.73-13.7a3.09,3.09,0,0,0,1.43-2.39C285.8,109.26,285.16,108.94,284.37,109.4Z" style="fill:#90D7CB"></path><path d="M284.37,109.4l-23.73,13.7a3.06,3.06,0,0,0-1.44,2.38c0,.86.64,1.19,1.44.73l23.73-13.7a3.09,3.09,0,0,0,1.43-2.39C285.8,109.26,285.16,108.94,284.37,109.4Z" style="fill:#fff;opacity:0.8"></path><path d="M284.37,149.31,260.64,163a3,3,0,0,0-1.44,2.38c0,.86.64,1.18,1.44.72l23.73-13.7A3.07,3.07,0,0,0,285.8,150C285.8,149.18,285.16,148.86,284.37,149.31Z" style="fill:#90D7CB"></path><path d="M284.37,149.31,260.64,163a3,3,0,0,0-1.44,2.38c0,.86.64,1.18,1.44.72l23.73-13.7A3.07,3.07,0,0,0,285.8,150C285.8,149.18,285.16,148.86,284.37,149.31Z" style="fill:#fff;opacity:0.8"></path><path d="M278.91,120.51l-18.27,10.57a3.08,3.08,0,0,0-1.44,2.39c0,.85.64,1.18,1.44.72l18.27-10.57a3.06,3.06,0,0,0,1.43-2.38C280.34,120.38,279.7,120.06,278.91,120.51Z" style="fill:#90D7CB"></path><path d="M278.91,120.51l-18.27,10.57a3.08,3.08,0,0,0-1.44,2.39c0,.85.64,1.18,1.44.72l18.27-10.57a3.06,3.06,0,0,0,1.43-2.38C280.34,120.38,279.7,120.06,278.91,120.51Z" style="fill:#fff;opacity:0.8"></path><path d="M278.91,128.5l-18.27,10.57a3,3,0,0,0-1.44,2.38c0,.86.64,1.18,1.44.72l18.27-10.56a3.09,3.09,0,0,0,1.43-2.39C280.34,128.36,279.7,128,278.91,128.5Z" style="fill:#90D7CB"></path><path d="M278.91,128.5l-18.27,10.57a3,3,0,0,0-1.44,2.38c0,.86.64,1.18,1.44.72l18.27-10.56a3.09,3.09,0,0,0,1.43-2.39C280.34,128.36,279.7,128,278.91,128.5Z" style="fill:#fff;opacity:0.8"></path><path d="M284.37,133.35l-23.73,13.7a3.06,3.06,0,0,0-1.44,2.38c0,.86.64,1.18,1.44.73l23.73-13.71a3.06,3.06,0,0,0,1.43-2.38C285.8,133.21,285.16,132.89,284.37,133.35Z" style="fill:#90D7CB"></path><path d="M284.37,133.35l-23.73,13.7a3.06,3.06,0,0,0-1.44,2.38c0,.86.64,1.18,1.44.73l23.73-13.71a3.06,3.06,0,0,0,1.43-2.38C285.8,133.21,285.16,132.89,284.37,133.35Z" style="fill:#fff;opacity:0.8"></path><path d="M278.91,144.47,260.64,155a3.08,3.08,0,0,0-1.44,2.38c0,.86.64,1.19,1.44.73l18.27-10.56a3.09,3.09,0,0,0,1.43-2.39C280.34,144.33,279.7,144,278.91,144.47Z" style="fill:#90D7CB"></path><path d="M278.91,144.47,260.64,155a3.08,3.08,0,0,0-1.44,2.38c0,.86.64,1.19,1.44.73l18.27-10.56a3.09,3.09,0,0,0,1.43-2.39C280.34,144.33,279.7,144,278.91,144.47Z" style="fill:#fff;opacity:0.8"></path></g></g></g><g id="freepik--speech-bubble--inject-68"><g id="freepik--speech-bubble--inject-68"><g id="freepik--speech-bubble--inject-68"><path d="M434.94,241.77,432,236.22l2.38-6.86v-4.2l-7.28,4.2v4.19l3.13,5.42a.48.48,0,0,0,.21.19h0Z" style="fill:#90D7CB"></path><path d="M434.94,241.77,432,236.22l2.38-6.86v-4.2l-7.28,4.2v4.19l3.13,5.42a.48.48,0,0,0,.21.19h0Z" style="opacity:0.2"></path><path d="M452.31,191.77a4.78,4.78,0,0,0-2.18-3.77l-.86-.48a4.79,4.79,0,0,0-4.36,0l-27.23,15.74A4.82,4.82,0,0,0,415.5,207v30a4.82,4.82,0,0,0,2.18,3.78l.86.48a4.85,4.85,0,0,0,4.36,0l8.76-5.06,3.12,5.4a.46.46,0,0,0,.84-.08l3.3-9.52,11.21-6.49a4.8,4.8,0,0,0,2.18-3.78Z" style="fill:#90D7CB"></path><path d="M415.5,237a4.82,4.82,0,0,0,2.18,3.78l.86.48a4.86,4.86,0,0,0,4,.17c-1,.39-1.81-.19-1.81-1.43V210a4.55,4.55,0,0,1,.64-2.15l-5.22-3a4.44,4.44,0,0,0-.64,2.15Z" style="opacity:0.2"></path><path d="M452.24,191.15c-.25-.92-1.1-1.22-2.1-.64L422.9,206.27a4.21,4.21,0,0,0-1.53,1.62l-5.23-3a4.49,4.49,0,0,1,1.54-1.63l27.22-15.75a4.87,4.87,0,0,1,4.37,0l.87.48A4.81,4.81,0,0,1,452.24,191.15Z" style="fill:#fff;opacity:0.30000000000000004"></path></g><path d="M442.35,203.36l1.15-2.19,3.14-.7a2.46,2.46,0,0,0-1.3-2.07c-1.18-.5-2.85.45-4,2.32a8.31,8.31,0,0,0-1.35,4.69,2.29,2.29,0,0,1-.29,1.16l-1.6,3.07-1.18,2.23,2.19,1.54.9-1.71,1.48-2.82a1.67,1.67,0,0,1,1-.9,5.51,5.51,0,0,0,3.25-3c.08-.15.16-.31.23-.46l-3.16.69Z" style="fill:#fafafa"></path><path d="M433.78,217.88l-.83,1.59-1.48,2.82a1.6,1.6,0,0,1-1,.9,5.53,5.53,0,0,0-3.26,3c-.08.16-.15.31-.22.47l3.15-.7.43,1.82-1.15,2.2-3.14.69a2.46,2.46,0,0,0,1.3,2.07c1.18.51,2.84-.45,4-2.31a8.32,8.32,0,0,0,1.34-4.69,2.36,2.36,0,0,1,.29-1.17l1.84-3.51.78-1.52Z" style="fill:#fafafa"></path><path d="M446.22,220.13,432,210c.08-.15.08-.33,0-.39l-1.33-1c-.2-.16-.2-.59,0-1,.89-1.7,2.34-2.53,3.22-1.86l.24.17c.17-.32.17-.69,0-.82l-.37-.27c-1.33-1-3.5.24-4.83,2.79L427.13,211h0l-.14.28-.11.21h0l-.11.2c.38.28,0,1.61-.52,2.5s-.63.93-.84.93-.21,0-.28.17h0l-.1.2h0l-.45.85,0,.08c-.13.23-.13.5,0,.59l0,0h0l1.64,1.23c.14.11.37,0,.51-.29v0l0,0,.44-.85.11-.21c.09-.16.09-.34,0-.4h0a5,5,0,0,1,1-2.18c.66-1,1.3-.84,1.3-.84h0l.25.19c.09.07.23,0,.32-.18l.09-.18L444,224.43c.2.16.53,0,.74-.42l1.51-2.89C446.44,220.72,446.43,220.28,446.22,220.13Z" style="fill:#fafafa"></path></g></g></svg>